<?xml version="1.0" encoding="utf-8" ?>
<svg xmlns="http://www.w3.org/2000/svg" xmlns:xlink="http://www.w3.org/1999/xlink" width="1024" height="1024">
	<defs>
		<linearGradient id="gradient_0" gradientUnits="userSpaceOnUse" x1="320.10031" y1="379.785" x2="111.47922" y2="123.59145">
			<stop offset="0" stop-color="#0766FD"/>
			<stop offset="1" stop-color="#00DFF6"/>
		</linearGradient>
	</defs>
	<path fill="url(#gradient_0)" transform="scale(2 2)" d="M265.631 431.127C264.509 426.1 265.613 420.018 265.639 414.844C265.78 386.99 258.735 350.641 233.652 334.688C218.949 325.336 203.696 330.742 192.974 343.182C176.483 362.316 170.254 392.455 170.852 417.469C171.015 424.281 172.39 431.773 168.404 437.815C163.768 444.844 153.693 445.795 147.167 440.892C143.831 438.386 141.749 434.436 139.405 431.067C121.529 405.376 110.028 372.997 109.104 341.564C108.508 321.267 110.248 322.278 99.2777 305.868C81.8054 279.731 68.0369 250.149 63.5087 218.858C53.2708 148.112 119.94 99.4249 182.604 129.041C206.58 140.372 225.459 144.037 251.03 131.189C254.994 129.198 258.77 126.906 262.851 125.14C317.787 101.371 375.701 147.028 375.489 204.915C375.48 207.437 374.421 240.827 366.071 231.666C362.676 227.941 378.639 187.145 349.33 153.403C330.309 131.505 299.144 119.981 271.068 129.774C265.314 131.781 259.952 134.939 254.536 137.697C235.539 147.369 212.816 149.455 192.666 141.977C186.805 139.803 181.581 136.708 175.958 134.064C150.358 122.026 116.889 127.146 95.8301 145.739C48.1075 187.874 76.006 258.919 106.048 302.734C120.179 323.345 114.665 322.42 116.806 346.787C119.053 372.367 132.541 414.163 150.555 433.837C154.477 438.12 161.745 437.522 163.48 431.376C164.482 427.828 163.577 420.75 163.514 416.858C163.061 389.037 170.016 356.103 190.012 335.569C206.929 318.195 228.912 318.306 246.063 335.191C273.111 361.819 272.62 396.732 272.775 431.127C270.563 428.589 274.278 409.431 268.665 408.959C264.117 410.616 266.301 426.925 265.631 431.127Z"/>
	<path fill="#0766FD" transform="scale(2 2)" d="M380.706 377.856C376.383 372.602 364.989 359.503 362.156 353.688C359.191 347.602 365.185 340.317 371.764 341.374C376.508 342.136 393.126 357.357 397.697 361.028C405.314 356.375 412.238 367.619 417.679 373.17L436.484 392.244C442.378 398.217 454.932 406.342 452.561 415.691C451.52 419.799 444.04 427.179 440.302 429.3C430.17 435.049 420.575 421.357 414.361 415.204C404.78 405.72 395.356 396.031 385.583 386.748C378.518 401.937 370.597 429.185 359.617 440.001C351.547 447.95 335.04 443.353 335.114 431.127C337.38 424.145 332.553 396.576 333.667 394.721L334.104 395.282C335.133 395.037 335.317 393.847 336.166 393.331C341.389 390.158 341.654 413.689 342.16 416.584L342.504 416.722C342.509 422.415 340.157 437.213 349.511 436.76C358.377 436.331 371.407 402.681 374.009 395.46C376.023 389.868 377.88 383.025 380.706 377.856ZM387.614 379.327C400.949 391.873 413.738 404.939 426.894 417.658C428.902 419.6 430.93 421.856 433.281 423.362C437.817 424.984 446.942 414.635 445.377 411.856C443.601 408.702 437.08 402.976 434.328 400.199L412.299 377.951C408.627 374.252 405.175 370.051 401.213 366.689C396.913 370.984 392.652 375.903 387.614 379.327ZM385.583 372.331L388.375 369.524C389.694 368.208 391.017 366.91 392.397 365.659C386.748 361.95 373.513 349.83 369.915 348.619C369.308 349.324 368.929 349.606 368.759 350.534C369.805 353.293 382.136 367.491 385.583 372.331Z"/>
	<defs>
		<linearGradient id="gradient_1" gradientUnits="userSpaceOnUse" x1="373.26657" y1="346.97989" x2="265.98999" y2="273.63153">
			<stop offset="0" stop-color="#0766FD"/>
			<stop offset="1" stop-color="#00DFF6"/>
		</linearGradient>
	</defs>
	<path fill="url(#gradient_1)" transform="scale(2 2)" d="M335.114 431.127C334.693 427.345 335.155 423.208 335.029 419.369C334.583 405.719 329.878 362.639 315.283 358.098C313.387 357.508 311.289 357.428 309.337 357.05C294.739 354.218 282.212 341.115 278.919 326.899C277.601 321.21 278.001 315.122 277.997 309.314L277.995 273.784C278.006 254.37 283.449 238.893 302.583 229.581C304.569 228.614 307.874 226.373 310.055 227.937C315.777 232.04 307.64 235.474 305.045 236.831C286.74 246.401 285.251 260.345 285.277 278.334L285.286 294.683C285.258 316.096 282.006 340.688 308.402 349.166C313.77 350.891 318.789 350.476 323.285 354.405C337.564 366.881 341.238 397.771 342.504 416.722L342.16 416.584C341.654 413.689 341.389 390.158 336.166 393.331C335.317 393.847 335.133 395.037 334.104 395.282L333.667 394.721C332.553 396.576 337.38 424.145 335.114 431.127Z"/>
	<path fill="#0766FD" transform="scale(2 2)" d="M329.231 219.302C342.165 218.048 341.13 225.983 346.613 233.798C355.932 247.078 374.722 253.534 390.359 251.963C395.11 251.486 399.128 249.506 399.746 256.018C400.176 260.557 399.909 265.322 399.911 269.886L399.857 319.868C399.85 323.005 401.177 329.595 398.865 332.153C397.733 333.406 394.892 333.552 393.76 332.205C391.541 329.564 392.387 313.541 392.397 309.625L392.397 259.755C372.052 260.255 350.575 254.905 339.273 236.16C336.444 231.468 336.26 224.813 329.231 227.094C322.97 233.247 331.709 237.541 329.963 242.343C329.242 244.323 326.823 245.553 324.891 244.528C319.279 241.55 315.287 222.556 329.231 219.302Z"/>
	<defs>
		<linearGradient id="gradient_2" gradientUnits="userSpaceOnUse" x1="413.39075" y1="167.72298" x2="459.89236" y2="192.49557">
			<stop offset="0" stop-color="#00DFF6"/>
			<stop offset="1" stop-color="#0766FD"/>
		</linearGradient>
	</defs>
	<path fill="url(#gradient_2)" transform="scale(2 2)" d="M437.103 149.252C441.021 149.649 441.134 151.909 441.356 155.078C442.996 178.501 462.445 174.18 465.996 177.736C470.355 182.101 462.873 183.883 459.983 184.252C446.842 185.932 442.108 197.183 441.719 209.134C440.524 211.143 439.572 212.02 437.103 211.992C433.241 210.223 433.834 207.269 433.439 203.48C430.941 179.519 409.544 186.405 406.959 182.091C401.787 173.46 430.502 182.151 433.57 158.639C434.069 154.822 433.103 151.161 437.103 149.252ZM427.745 180.466C435.49 184.938 434.988 188.633 437.881 190.953L438.221 190.682C441.086 185.828 443.689 183.105 448.697 180.466C444.285 177.38 441.016 174.695 438.221 170.003C434.529 174.441 432.297 176.861 427.745 180.466Z"/>
	<path fill="#00DFF6" transform="scale(2 2)" d="M296.594 78.213C289.234 76.6458 281.901 75.6153 274.397 75.042C271.318 74.8067 262.299 75.7611 260.366 72.9118C252.146 60.7911 297.268 70.7401 301.358 71.7593C334.973 76.1837 375.233 104.711 395.127 130.651C396.651 132.64 405.947 144.754 396.867 143.914C393.766 143.627 389.378 135.81 387.709 133.55C365.531 103.51 332.292 86.27 296.594 78.213Z"/>
	<path fill="#00DFF6" transform="scale(2 2)" d="M73.1958 68.3725C79.6721 67.6612 78.059 73.9597 78.9251 78.4353C83.1948 100.498 107.038 88.8087 103.606 98.3539C101.315 104.723 80.1153 96.0255 78.2386 118.303C77.9771 121.407 78.6901 125.846 75.2882 127.314C68.8757 128.156 70.3239 120.265 69.6407 116.201C66.3666 96.7273 47.0868 103.765 45.1244 99.199C42.0955 92.1522 55.1042 93.4962 58.4859 92.2533C73.8391 86.6103 67.1625 70.1333 73.1958 68.3725ZM64.9754 97.3319C68.8107 99.9293 71.4503 102.694 74.4932 106.151C76.5095 101.812 79.4111 99.4354 83.6207 97.3319C81.5767 96.1047 79.3418 94.815 77.6789 93.0771C76.7918 92.15 75.1079 88.4828 74.4932 88.1505C71.8646 92.5407 69.3201 94.6467 64.9754 97.3319Z"/>
	<path fill="#0766FD" transform="scale(2 2)" d="M401.213 229.275C403.843 228.919 407.468 230.703 409.792 231.835C430.093 241.725 433.302 255.612 433.29 275.802L433.296 311.479C433.308 332.765 428.011 349.272 405.053 356.968C403.209 357.267 401.463 357.085 400.372 355.338C397.376 350.544 407.918 347.904 410.42 346.435C429.963 334.96 426.035 312.501 426.017 293.411L426.024 277.529C426.054 261.578 425.024 247.806 408.499 239.317C405.889 237.976 391.205 234.719 401.213 229.275Z"/>
	<path fill="#0766FD" transform="scale(2 2)" d="M272.775 431.127C277.123 444.425 287.06 432.33 291.296 426.3C300.518 413.172 308.369 399.436 313.409 384.176C314.21 381.753 314.944 376.456 317.596 375.274C330.253 369.631 311.729 407.036 309.072 411.657C305.119 418.533 295.625 434.907 289.759 440.263C281.346 447.944 266.368 442.809 265.631 431.127C266.301 426.925 264.117 410.616 268.665 408.959C274.278 409.431 270.563 428.589 272.775 431.127Z"/>
	<path fill="#0766FD" transform="scale(2 2)" d="M312.999 247.25C316.981 247.069 317.931 248.239 318.02 251.896C318.643 277.322 318.782 306.005 318.033 331.436C317.959 333.927 317.543 334.723 315.242 335.844C313.511 335.981 312.723 335.279 311.425 334.275C309.738 329.465 310.464 249.924 310.661 249.398C311.078 248.283 312.033 247.828 312.999 247.25Z"/>
	<path fill="#00DFF6" transform="scale(2 2)" d="M250.319 161.049C258.723 160.87 254.391 167.651 248.162 170.749C224.857 182.34 208.288 177.423 186.272 170.003C179.969 166.235 179.932 157.971 191.857 164.306C205.305 171.45 224.757 171.823 238.731 166.717C242.82 165.224 246.832 162 250.319 161.049Z"/>
	<path fill="#0766FD" transform="scale(2 2)" d="M356.801 311.173C359.799 311.614 366.332 318.473 368.834 320.748C371.481 318.759 375.072 313.2 378.903 314.052C387.417 315.945 371.199 328.654 368.834 329.754C365.47 328.168 360.538 323.274 357.411 320.748L356.998 320.448C352.911 321.112 348.915 331.719 344.388 329.245C341.569 327.704 326.662 314.587 336.094 313.689C338.851 313.427 343.657 318.865 345.765 320.748C349.102 317.394 352.695 313.563 356.801 311.173Z"/>
	<path fill="#00DFF6" transform="scale(2 2)" d="M113.064 168.482C123.812 168.35 110.774 180.273 109.462 181.986C104.152 188.921 101.134 198.11 100.958 206.786C100.814 213.855 105.202 221.457 98.581 223.815C88.8263 223.751 92.2936 179.523 113.064 168.482Z"/>
	<path fill="#0766FD" transform="scale(2 2)" d="M355.986 283.004C360.13 283.041 365.975 289.211 368.834 292.093C371.02 290.218 372.68 287.372 375.2 285.944C383.51 281.232 380.878 295.972 368.834 301.187C364.373 299.017 360.369 294.438 356.801 291.047C354.577 293.396 348.011 301.829 344.295 300.116C341.28 298.726 325.897 285.834 335.825 284.793C338.823 284.478 343.788 290.189 345.765 292.093C349.048 289.247 352.133 285.015 355.986 283.004Z"/>
	<path fill="#00DFF6" transform="scale(2 2)" d="M102.773 238.778C107.64 238.427 108.253 243.989 109.672 247.62C112.122 253.887 114.831 260.304 118.054 266.213C119.98 269.743 125.943 276.275 120.075 278.945C111.45 279.577 99.8272 242.089 100.154 241.013C100.517 239.819 101.721 239.236 102.773 238.778Z"/>
	<path fill="#00DFF6" transform="scale(2 2)" d="M219.782 87.0272C221.542 87.0018 234 86.1303 231.855 90.7769C231.059 92.5009 230.322 93.3513 228.522 93.9806C214.372 95.2704 214.204 88.0432 219.782 87.0272Z"/>
	<path fill="#00DFF6" transform="scale(2 2)" d="M193.235 87.0272C196.207 87.006 207.849 86.0218 203.485 92.3448C202.692 93.4934 201.858 93.7212 200.532 93.9806C197.812 94.0116 193.531 94.6312 191.125 93.4134C186.858 91.2547 189.527 87.3355 193.235 87.0272Z"/>
	<path fill="#00DFF6" transform="scale(2 2)" d="M209.519 69.7642C216.86 69.3521 214.796 82.8183 211.862 84.4652C204.205 84.9034 205.544 71.7222 209.519 69.7642Z"/>
	<path fill="#00DFF6" transform="scale(2 2)" d="M208.64 97.3319C217.276 95.964 214.947 109.217 211.862 111.085C205.234 112.588 205.187 99.7804 208.64 97.3319Z"/>
</svg>
