<?xml version="1.0" encoding="utf-8" ?>
<svg xmlns="http://www.w3.org/2000/svg" xmlns:xlink="http://www.w3.org/1999/xlink" width="1024" height="1024">
	<defs>
		<linearGradient id="gradient_0" gradientUnits="userSpaceOnUse" x1="136.87967" y1="300.28845" x2="400.00571" y2="130.99104">
			<stop offset="0" stop-color="#05C4EF"/>
			<stop offset="1" stop-color="#014FF0"/>
		</linearGradient>
	</defs>
	<path fill="url(#gradient_0)" transform="scale(2 2)" d="M291.637 328.387C271.431 330.958 251.272 334 231.104 336.848L212.955 339.352C195.137 341.771 188.105 341.049 175.203 325.411C161.128 308.349 153.811 287.01 148.694 265.784C143.636 244.803 146.648 243.58 134.944 225.066C115.414 194.173 102.179 152.742 114.43 116.941C130.135 71.0478 184.326 49.6472 227.491 70.532C237.673 75.4582 243.981 83.4475 256.152 83.3256C267.276 83.2142 274.075 75.8212 283.373 71.177C298.865 63.4396 323.657 60.0652 340.69 65.7002C381.928 77.12 407.535 115.496 402.341 157.846C400.214 175.186 392.55 198.265 383.935 213.034C381.574 217.624 378.934 222.026 376.112 226.346C368.631 237.795 369.192 232.763 367.276 246.122C363.857 269.96 355.905 294.341 344.316 315.37C336.653 329.274 326.745 339.74 309.746 340.658C308.678 342.972 307.37 344.667 305.698 346.576C312.475 351.87 310.965 360.97 305.698 366.73C312.568 373.286 310.897 380.255 305.698 387.313C311.218 391.861 311.616 399.972 307.295 405.521C303.632 410.226 298.303 410.667 292.858 411.422C288.948 416.735 287.554 420.472 282.173 424.919C266.034 438.258 244.845 438.261 229.199 424.376C214.248 411.108 234.682 412.708 245.35 411.162C259.436 409.12 273.601 407.178 287.631 404.818C294.303 403.696 300.593 404.651 302.373 396.894C299.457 386.186 284.148 392.534 275.282 393.866L228.164 400.564C224.276 401.111 206.036 405.033 203.25 403.533C200.396 401.996 200.21 397.006 203.59 396.073C210.883 394.06 221.368 393.234 229.06 392.157L279.547 384.939C284.594 384.173 297.319 383.578 300.333 380.366C304.329 376.109 300.515 370.238 295.301 370.248C292.376 370.253 289.324 370.866 286.423 371.269L224.074 379.824C217.756 380.684 211.356 382.198 205.014 382.653L204.623 382.68C203.276 382.038 201.725 381.302 201.205 379.782C199.195 373.914 210.424 373.678 213.773 373.218L279.234 364.013C283.316 363.475 296.11 362.423 299.091 360.921C301.635 359.639 303.309 354.678 301.689 352.192C298.08 346.654 284.891 350.601 279.865 351.256C256.087 354.353 230.607 358.997 207.029 361.112C201.195 361.635 199.422 355.476 203.54 353.766C206.435 352.564 215.595 351.803 219.368 351.242C229.752 349.696 296.192 342.348 302.373 338.706C297.705 334.948 295.507 333.06 291.637 328.387ZM219.913 330.057C225.335 329.586 230.722 328.572 236.111 327.815L271.167 322.916C276.915 322.052 282.653 321.218 288.428 320.551C286.71 312.112 287.099 303.634 287.104 295.068L287.115 268.739C287.116 263.312 287.722 257.143 286.286 251.894C284.544 245.521 277.226 240.498 270.605 241.979C264.634 243.314 262.731 248.632 255.357 248.439C248.51 248.259 244.663 241.288 237.736 241.796C223.475 244.629 224.904 257.011 224.921 268.672L224.943 297.986C224.943 309.33 225.626 319.818 219.913 330.057ZM237.736 420.614C239.291 422.176 240.846 423.138 242.822 424.091C254.739 428.775 275.459 426.55 281.782 414.477L281.544 414.255L280.747 414.343C266.413 416.265 252.028 418.417 237.736 420.614ZM379.353 204.445C390.756 179.026 400.801 150.111 391.127 122.469C383.358 100.272 369.94 86.8692 349.443 76.9064C329.265 69.2534 309.002 68.3177 288.765 77.3779C272.664 84.5862 265.751 97.6489 243.167 89.2311C236.19 86.6301 230.826 81.3409 224.246 78.0059C186.613 58.9309 137.538 77.9855 122.812 117.907C110.241 151.99 123.255 190.031 141.301 219.804C148.849 232.257 150.005 232.033 153.01 246.538C158.577 273.407 165.151 304.452 185.18 324.326C190.886 329.987 198.618 335.292 206.84 331.391C218.629 325.798 216.743 308.201 216.746 297.607L216.736 267.075C216.726 261.25 216.219 254.915 217.983 249.295C221.25 238.885 233.343 230.608 244.298 234.408C256.832 238.756 250.705 243.399 264.228 235.799C277.165 228.528 293.287 240.184 295.29 253.622C296.053 258.747 295.667 264.395 295.669 269.584L295.672 297.379C295.663 307.33 294.308 318.711 301.263 326.869C309.613 336.665 322.36 331.031 329.753 322.729C343.814 306.939 354.306 271.266 358.453 249.634C362.353 229.293 359.254 237.977 370.092 220.927C373.492 215.577 376.321 209.995 379.353 204.445Z"/>
	<path fill="#014FF0" transform="scale(2 2)" d="M195.699 96.4773C197.985 96.542 201.432 99.1033 203.522 100.182C228.302 112.97 258.166 115.96 285.143 109.12C288.08 108.375 296.726 105.004 298.32 109.249C299.385 112.084 297.223 114.185 294.814 115.111C270.884 122.926 241.028 122.72 217.194 114.741C213.794 113.603 180.333 102.597 195.699 96.4773Z"/>
	<path fill="#014FF0" transform="scale(2 2)" d="M326.455 93.2795C360.263 95.0628 382.133 126.619 376.973 159.218C376.344 163.193 376.129 168.069 371.988 169.974C369.215 169.931 368.192 168.804 367.12 166.29C367.533 162.84 368.83 159.439 369.399 155.991C373.193 133.02 358.215 109.165 335.619 103.011C332.107 102.055 321.031 102.708 323.424 96.0723C323.959 94.5888 325.077 93.886 326.455 93.2795Z"/>
	<path fill="#014FF0" transform="scale(2 2)" d="M364.722 177.523C367.608 177.373 370.689 178.117 370.311 181.68C369.794 186.554 356.958 209.946 353.313 213.034C339.985 214.266 356.193 193.198 358.109 189.495C359.881 186.073 360.933 179.207 364.722 177.523Z"/>
	<path fill="#014FF0" transform="scale(2 2)" d="M340.69 65.7002C381.928 77.12 407.535 115.496 402.341 157.846C400.214 175.186 392.55 198.265 383.935 213.034C383.614 207.351 393.455 201.47 384.021 196.209L383.738 196.332C383.102 198.006 380.319 203.798 379.353 204.445C390.756 179.026 400.801 150.111 391.127 122.469C383.358 100.272 369.94 86.8692 349.443 76.9064C352.065 76.2927 358.785 81.3709 362.501 82.3635C363.819 81.4099 365.735 80.0934 365.746 78.2969C365.774 73.8186 343.182 68.1834 340.69 65.7002Z"/>
	<path fill="#05C4EF" transform="scale(2 2)" d="M157.113 440.703L364.763 440.712C368.621 440.712 386.18 439.404 388.607 441.478C391.676 444.1 389.287 448.217 385.883 448.725C382.504 449.23 378.054 448.743 374.575 448.744L347.125 448.754L142.617 448.741C137.22 448.739 113.564 451.866 113.848 444.458C114.072 438.594 125.892 440.714 129.531 440.714L157.113 440.703Z"/>
	<path fill="#05C4EF" transform="scale(2 2)" d="M131.384 300.178C134.755 300.098 141.736 299.146 144.248 301.673C145.774 303.208 145.707 306.501 144.089 307.955C142.104 309.738 137.426 309.014 134.875 308.933C131.601 308.901 124.739 309.927 122.234 307.768C120.365 306.157 120.641 303.143 122.348 301.527C124.439 299.545 128.698 300.181 131.384 300.178Z"/>
	<path fill="#05C4EF" transform="scale(2 2)" d="M76.794 300.178C80.6241 300.183 90.4255 299.551 93.7039 300.671C98.1481 302.19 97.0941 307.463 93.3138 308.933C87.5867 309.089 81.7296 309.092 76.0019 308.933C72.1831 306.095 72.591 302.073 76.794 300.178Z"/>
	<path fill="#014FF0" transform="scale(2 2)" d="M417.753 300.178C421.512 300.18 431.543 299.546 434.579 300.641C438.828 302.173 437.979 307.288 434.408 308.933C430.27 309.07 422.82 309.385 419.006 308.773C413.339 307.864 413.733 302.781 417.753 300.178Z"/>
	<path fill="#05C4EF" transform="scale(2 2)" d="M107.534 316.545C109.328 316.295 111.306 316.453 112.387 318.134C113.222 319.433 115.793 336.404 110.325 338.706C108.535 338.949 106.42 338.892 105.39 337.12C103.924 334.601 102.394 319.499 107.534 316.545Z"/>
	<path fill="#05C4EF" transform="scale(2 2)" d="M107.534 271.26C109.299 271.147 111.652 271.152 112.519 273.067C113.68 275.633 115.152 290.927 110.325 292.988C108.374 293.201 106.451 292.988 105.316 291.144C104.035 289.063 102.326 274.181 107.534 271.26Z"/>
	<path fill="#014FF0" transform="scale(2 2)" d="M402.782 271.26C404.143 271.073 406.07 271.065 406.899 272.392C408.491 274.942 409.837 289.809 404.267 292.988C402.652 292.668 399.817 291.602 399.408 289.785C398.474 285.647 396.67 272.11 402.782 271.26Z"/>
	<path fill="#014FF0" transform="scale(2 2)" d="M376.738 300.178C380.144 300.225 387.504 299.15 390.239 301.009C393.661 303.335 392.471 308.54 386.625 308.933C383.12 308.959 374.829 309.753 372.277 307.571C368.684 304.5 371.828 300.453 376.738 300.178Z"/>
	<path fill="#014FF0" transform="scale(2 2)" d="M402.782 317.541C404.303 317.613 405.358 318.143 406.655 318.894C408.762 322.493 410.241 335.577 404.267 338.706C402.535 338.382 400.169 337.414 399.523 335.674C398.218 332.164 397.029 319.679 402.782 317.541Z"/>
</svg>
