<?xml version="1.0" encoding="utf-8" ?>
<svg xmlns="http://www.w3.org/2000/svg" xmlns:xlink="http://www.w3.org/1999/xlink" width="1024" height="1024">
	<defs>
		<linearGradient id="gradient_0" gradientUnits="userSpaceOnUse" x1="65.054169" y1="315.92905" x2="429.4444" y2="203.42049">
			<stop offset="0" stop-color="#0DFDFD"/>
			<stop offset="1" stop-color="#0D59F5"/>
		</linearGradient>
	</defs>
	<path fill="url(#gradient_0)" transform="scale(2 2)" d="M205.377 121.226C225.649 119.826 242.04 127.168 256.938 139.986C260.183 134.91 269.205 129.87 274.591 127.386C291.848 119.427 309.088 119.627 326.504 126.024C338.303 123.409 345.131 120.535 357.835 121.984C390.922 125.758 417.689 152.385 423.762 184.748C428.12 207.966 421.145 232.348 410.337 252.805C401.464 269.597 394.039 271.549 391.403 294.251C395.232 294.105 399.11 294.243 402.945 294.245L438.561 294.264C442.322 294.241 449.791 292.867 450.081 298.459C450.397 304.556 436.833 302.178 433.472 302.214C419.252 302.369 405.017 302.239 390.795 302.241C390.84 330.238 386.341 360.905 368.895 383.674C362.646 391.83 352.175 400.062 343.025 389.66C333.977 379.374 349.249 347.479 326.504 321.953C316.294 330.187 312.226 355.795 312.489 368.475C312.587 373.197 314.456 378.509 313.318 383.11C311.366 391.003 303.412 395.55 295.624 393.422C281.449 389.547 276.758 366.472 270.422 355.474L270.234 355.152C267.385 335.995 262.872 324.352 262.831 302.8L249.505 302.8C246.641 332.47 246.091 356.272 228.619 383.184C223.185 391.554 214.225 398.205 204.594 391.407C195.915 385.282 199.437 375.613 199.626 366.898C199.896 354.415 195.817 328.888 185.484 321.953L185.054 322.266C176.199 328.619 171.884 354.879 171.735 364.71C171.578 375.058 177.047 393.946 158.232 394.015C148.625 394.051 144.472 386.085 140.263 378.822C127.106 356.121 121.225 328.315 121.246 302.241C103.517 301.92 80.4941 303.822 63.526 302.243C60.2348 301.937 57.5229 298.285 60.3428 295.47C62.3591 293.457 67.7184 294.246 70.2812 294.256L120.756 294.251C120.887 280.253 114.998 273.518 107.466 262.797C90.2576 238.302 81.3172 205.537 90.3482 176.39C102.604 136.833 145.255 111.943 185.484 124.833C191.613 122.31 198.793 121.31 205.377 121.226ZM205.377 128.758C193.22 129.988 189.833 133.442 176.927 130.745C153.197 125.785 126.975 134.764 111.589 153.56C85.5931 185.317 91.9035 225.036 113.227 257.089C127.099 277.941 128.669 278.25 129.024 303.193C129.376 328.013 134.947 352.963 146.923 374.821C149.321 379.199 152.619 386.763 158.747 386.185C166.814 385.426 164.602 376.913 164.194 371.656C163.847 367.186 163.884 362.55 164.161 358.075C165.051 343.673 178.33 293.624 196.519 323.453C204.838 337.095 208.7 354.51 207.264 370.479C206.848 375.106 204.032 387.541 213.735 386.241C219.755 385.434 224.57 374.792 226.937 369.996C236.523 350.578 240.676 328.487 241.383 306.956C241.737 296.139 237.615 276.91 252.866 274.424C273.225 271.105 269.96 294.046 270.401 305.469C270.981 320.46 273.124 335.057 277.283 349.483C279.881 358.346 288.69 381.5 296.527 385.705C299.211 387.145 303.672 386.36 305.058 383.395C306.589 380.119 304.417 370.305 304.503 366.021C305.067 338.082 325.346 282.313 343.611 337.89C347.128 348.591 348.872 359.303 348.265 370.573C348.06 374.366 344 389.98 355.073 385.876C373.252 379.137 382.454 325.498 383.122 309.323C383.915 290.159 382.568 280.648 393.665 263.576C406.248 244.217 415.984 228.369 417.066 203.749C419.011 159.465 381.123 121.144 336.637 131.263C333.507 131.975 330.57 133.344 327.46 134.062C322.444 132.814 317.66 130.845 312.576 129.832C292.821 125.894 276.692 132.952 261.774 144.831C263.165 146.428 278.865 164.863 267.172 163.52C262.719 163.009 250.406 128.02 205.377 128.758ZM249.505 285.49L249.505 295.244L256.938 295.244L262.831 295.244C262.835 289.069 263.373 281.835 255.279 281.554C252.733 282.008 250.999 283.401 249.505 285.49Z"/>
	<path fill="#0D59F5" transform="scale(2 2)" d="M170.259 195.988L170.764 195.974C177.124 195.853 183.511 196 189.875 195.995C202.961 195.983 213.002 194.432 223.099 204.506C231.806 213.193 231.791 220.541 231.756 232.069L279.233 232.069C282.617 201.429 292.2 196.039 321.951 195.996C335.707 195.976 350.316 193.827 360.661 205.029C368.566 213.588 369.261 220.726 369.261 231.476C369.262 243.679 369.634 255.309 359.675 264.342C354.207 269.301 347.747 271.959 340.326 271.61C335.768 271.776 331.445 270.406 326.946 270.277C321.617 270.124 316.201 271.357 310.854 271.584C292.408 272.37 279.801 257.924 279.233 239.971C263.411 239.846 247.574 240.209 231.756 239.971C231.792 246.102 231.819 251.748 229.089 257.407C221.405 273.337 202.494 278.023 187.217 270.55C168.419 280.168 146.601 269.327 143.723 248.401C143.183 244.476 143.475 240.358 143.471 236.398C143.45 216.068 146.217 198.95 170.259 195.988ZM186.432 262.505C189.383 262.804 192.037 264.072 194.833 264.958C207.362 268.929 221.796 262.249 223.873 248.513C224.289 245.766 224.029 242.751 224.019 239.971C220.599 240.032 209.275 239.516 215.576 233.322C217.557 231.374 221.44 232.181 224.019 232.069C224.13 213.447 219.302 204.319 199.496 203.759L183.142 203.744C150.077 203.76 151.25 214.91 151.516 245.138C151.622 257.171 162.04 266.798 173.913 266.533C179.201 266.415 181.812 263.674 186.432 262.505ZM286.473 239.971C288.981 255.729 298.017 266.433 314.855 263.557C320.125 262.657 324.926 260.85 330.238 262.505C353.27 266.293 361.845 259.233 361.835 235.441C361.824 207.06 353.64 203.778 326.368 203.766C320.262 203.763 313.981 203.428 307.895 203.759C292.022 206.411 288.124 217.828 286.473 232.069C288.912 232.191 293.42 231.607 295.228 233.454C301.418 239.777 289.376 240.014 286.473 239.971Z"/>
	<path fill="#0D59F5" transform="scale(2 2)" d="M346.884 141.747C350.964 142.406 355.072 142.515 359.135 143.377C380.753 147.964 396.742 165.301 402.123 186.324C404.348 195.015 399.525 199.146 395.899 193.907C395.104 191.897 394.784 189.66 394.302 187.557C389.772 167.803 371.402 151.012 350.891 150.229C348.966 150.155 334.303 153.061 338.293 145.282C339.492 142.944 344.536 142.314 346.884 141.747Z"/>
	<path fill="#2234FB" transform="scale(2 2)" d="M203.929 141.747C244.686 140.102 263.383 180.654 247.92 175.057C246.144 173.242 245.091 170.634 243.789 168.473C237.232 157.588 223.173 150.205 210.808 149.449C207.489 149.246 204.177 149.738 200.851 149.544L200.415 149.517C193.641 146.635 198.727 142.49 203.929 141.747Z"/>
	<path fill="#0D59F5" transform="scale(2 2)" d="M398.363 206.274C406.662 205.807 401.67 222.644 397.108 223.759C389.964 224.039 393.009 207.888 398.363 206.274Z"/>
	<path fill="#2234FB" transform="scale(2 2)" d="M203.116 427.957C199.634 428.102 196.085 427.954 192.596 427.952L108.573 427.95C95.294 427.952 81.9816 427.731 68.7128 428.213C62.6563 428.433 59.7821 420.761 67.1594 420.047C70.5679 419.717 74.3078 420.032 77.7439 420.032L173.366 420.025L434.149 420.019C437.568 420.021 441.185 419.833 444.582 420.221C447.593 420.565 450.25 424.457 447.567 426.886C444.933 429.271 421.873 427.956 417.285 427.956L203.116 427.957Z"/>
	<path fill="#0D59F5" transform="scale(2 2)" d="M173.366 420.025L434.149 420.019C437.568 420.021 441.185 419.833 444.582 420.221C447.593 420.565 450.25 424.457 447.567 426.886C444.933 429.271 421.873 427.956 417.285 427.956L203.116 427.957C205.027 427.566 207.462 427.88 209.426 427.903L220.985 427.972C225.687 427.962 230.349 427.54 235.034 427.494C241.984 427.425 286.261 428.971 289.775 425.558C289.462 424.75 288.562 425.169 287.983 424.521C289.744 422.294 291.078 422.181 291.603 421.45C276.236 419.874 260.408 420.621 244.958 420.622C230.892 420.623 216.701 420.022 202.486 420.021L182.486 420.037C179.459 420.048 176.375 420.506 173.366 420.025Z"/>
	<path fill="#2234FB" transform="scale(2 2)" d="M92.2433 82.5277C104.256 82.2312 121.794 81.6695 133.609 82.6775C139.24 83.1579 138.926 89.1659 133.976 90.4727C128.021 90.472 93.1681 91.0104 90.7677 89.9259C86.8329 88.1482 88.3207 83.3296 92.2433 82.5277Z"/>
	<path fill="#2234FB" transform="scale(2 2)" d="M59.3233 82.5277C62.6573 82.3083 70.8548 82.0942 73.9187 82.6388C79.1215 83.5636 78.4762 88.1998 74.7496 90.4727C71.8338 90.7462 61.7332 90.9183 59.309 90.1133C55.0064 88.6845 55.8593 84.2117 59.3233 82.5277Z"/>
</svg>
