<?xml version="1.0" encoding="utf-8" ?>
<svg xmlns="http://www.w3.org/2000/svg" xmlns:xlink="http://www.w3.org/1999/xlink" width="1024" height="1024">
	<defs>
		<linearGradient id="gradient_0" gradientUnits="userSpaceOnUse" x1="451.02524" y1="196.03036" x2="105.19308" y2="317.45969">
			<stop offset="0" stop-color="#2010F6"/>
			<stop offset="1" stop-color="#05F3DD"/>
		</linearGradient>
	</defs>
	<path fill="url(#gradient_0)" transform="scale(2 2)" d="M255.05 170.63C242.296 172.08 243.94 165.726 243.96 155.648L243.976 107.907C243.966 92.9045 242.495 78.6044 254.789 67.3807C263.062 59.8276 273.108 58.4785 283.865 58.994L321.29 59.0029C326.509 58.9971 334.478 58.4661 339.287 59.1671C346.588 60.2312 344.294 74.5322 344.319 80.1776L401.617 80.1318C404.132 80.1059 406.771 79.9164 409.271 80.1776C421.151 92.0358 390.981 88.7621 386.654 88.7615L344.319 88.7477C344.328 92.5746 345.179 103.506 342.701 106.037C335.974 112.905 301.291 97.3413 300.712 125.695C300.521 135.012 300.721 144.377 300.741 153.699C300.76 162.656 302.921 173.64 289.643 170.63C289.384 173.018 289.403 175.215 289.643 177.603C324.562 177.363 350.763 208.202 350.774 242.337C350.775 247.281 349.787 264.344 346.134 267.763C344.38 269.404 341.206 268.648 339.925 266.784C338.429 264.608 341.665 251.632 341.994 247.209C341.817 240.884 341.838 236.46 341.17 229.881C333.461 205.483 317.783 185.688 289.643 186.275L289.65 207.07C289.66 219.012 290.767 228.487 276.905 233.162C276.912 242.813 277.197 252.549 276.905 262.191C275.794 263.696 274.688 264.817 272.748 265.087C266.513 265.955 268.058 253.918 268.059 250.378L268.071 233.162C255.569 229.31 255.008 220.192 255.025 209.06C255.036 201.5 255.354 193.826 255.05 186.275C242.276 187.04 232.997 193.028 219.475 190.878C209.026 189.216 204.364 182.838 195.385 178.577C172.476 167.704 144.457 179.108 128.595 196.969C100.362 228.763 107.495 263.876 122.785 299.378C130.609 317.545 141.787 333.994 133.798 354.512C132.514 357.808 131.004 360.741 130.545 364.29C135.521 374.958 144.718 363.098 154.105 381.089C160.787 393.897 152.413 414.686 164.174 435.205C168.479 442.716 175.614 447.648 184.061 442.999C208.456 429.572 210.23 354.507 228.668 344.531C245.796 335.263 258.201 397.293 261.082 406.93C264.568 418.594 273.533 452.281 291.862 443.26C303.469 437.547 307.594 419.906 308.162 407.997C308.928 391.962 304.291 379.72 321.345 371.159C325.817 368.914 331.621 369.426 334.638 365.062C321.878 327.243 334.251 319.476 349.39 286.742C352.352 280.336 354.334 273.614 356.787 267.023C358.182 261.376 359.527 255.644 359.977 249.828C360.274 245.984 358.173 232.536 365.848 234.781C373.186 236.927 366.116 266.596 364.419 271.442C361.258 281.735 356.722 291.52 351.845 301.093C342.741 318.961 334.326 330.123 339.166 351.452C340.248 356.219 343.418 361.199 342.743 366.163C341.154 377.836 329.3 375.089 322.381 380.63C310.314 390.294 326.192 427.237 301.052 447.572C278.496 465.817 263.154 440.418 256.082 420.887C250.334 405.015 242.009 364.356 232.669 352.869L232.453 352.608C225.892 361.162 220.907 381.319 217.888 392.213C213.037 409.719 207.881 431.52 195.428 445.236C186.584 454.978 172.528 456.129 162.716 447.15C139.34 425.763 156.265 384.976 139.763 378.671C134.973 376.841 132.151 378.813 127.161 374.196C117.569 365.319 124.737 357.64 126.833 348.03C130.186 332.655 122.476 319.494 116.339 306.046C108.429 288.713 101.325 268.203 100.552 249.237C98.4998 198.864 150.64 148.986 200.009 171.335C206.775 174.398 213.543 181.403 220.195 182.452C232.013 184.316 242.226 178.088 255.05 177.603C255.087 175.279 255.056 172.953 255.05 170.63ZM290.996 162.508C293.526 162.066 292.132 153.575 292.121 150.96L292.096 127.958C292.048 99.0989 313.538 99.131 335.755 99.1766L335.755 67.451L315.155 67.451L288.409 67.4351C282.877 67.4317 276.619 66.8341 271.203 68.0428C248.906 73.0194 252.604 95.421 252.604 112.487L252.615 162.508C256.826 162.509 289.963 162.143 290.996 162.508ZM271.537 225.598C284.026 224.92 280.777 208.532 280.769 200.223C280.761 190.526 281.119 180.706 280.723 171.026C280.152 170.597 279.477 170.686 278.776 170.63L263.606 170.63L263.592 203.344C263.591 207.958 263.073 214.711 263.863 219.053C264.675 223.519 268.431 223.76 271.537 225.598Z"/>
	<path fill="#005DF1" transform="scale(2 2)" d="M356.787 267.023C358.182 261.376 359.527 255.644 359.977 249.828C360.274 245.984 358.173 232.536 365.848 234.781C373.186 236.927 366.116 266.596 364.419 271.442C364.188 270.985 364.356 271.183 363.886 270.875L363.173 271.675C362.213 272.747 360.175 274.146 359.207 272.365L358.759 272.551L358.163 272.093C357.206 273.226 357.126 277.979 354.891 276.334C352.504 278.758 357.015 268.011 357.19 267.373L356.787 267.023Z"/>
	<path fill="#005DF1" transform="scale(2 2)" d="M341.17 229.881L341.642 229.84L341.292 229.155L341.695 229.029C342.465 231.379 341.657 234.511 343.871 235.919L343.313 235.454L343.379 235.254C343.697 234.265 343.904 233.263 344.117 232.248L344.942 232.425C348.483 240.013 346.198 234.936 347.447 240.895C347.843 242.785 349.853 244.933 349.187 246.96L348.824 247.214L348.684 246.597L348.431 246.586C347.191 248.484 347.241 249.767 344.331 251.412L343.864 250.625C343.191 250.571 342.984 250.857 342.439 251.213C342.213 249.871 342.844 248.189 341.994 247.209C341.817 240.884 341.838 236.46 341.17 229.881Z"/>
	<path fill="#005DF1" transform="scale(2 2)" d="M278.776 170.63C282.772 168.356 280.919 174.923 282.092 176.497C282.692 175.732 283.119 174.271 283.841 173.738C284.659 175.324 284.217 177.36 283.43 178.845L283.094 178.989L282.96 178.694C282.761 178.264 282.844 178.432 282.603 178.006L281.965 178.193C281.977 179.712 281.586 192.888 281.991 193.509L282.022 192.381L282.271 192.499C283.146 196.156 281.835 217.825 279.788 221.282C278.245 223.889 274.982 226.813 271.637 225.92L271.537 225.598C284.026 224.92 280.777 208.532 280.769 200.223C280.761 190.526 281.119 180.706 280.723 171.026C280.152 170.597 279.477 170.686 278.776 170.63Z"/>
	<path fill="#005DF1" transform="scale(2 2)" d="M328.309 195.848C330.693 196.041 336.395 199.492 333.52 202.283C331.444 202.692 331.853 203.116 333.009 204.574L332.872 205.379L332.612 205.497C327.229 203.489 328.127 199.933 328.309 195.848Z"/>
	<path fill="#005DF1" transform="scale(2 2)" d="M338.326 362.031C340.446 362.862 341.081 361.055 341.17 364.29C339.965 365.259 338.603 362.917 338.326 362.031Z"/>
	<path fill="#005DF1" transform="scale(2 2)" d="M347.5 231.246C347.988 231.109 348.398 231.075 348.9 231.038L349.169 231.307L348.775 232.174C347.481 233.533 347.439 232.539 347.5 231.246Z"/>
	<path fill="#005DF1" transform="scale(2 2)" d="M228.282 297.247C252.769 295.87 275.581 311.655 281.095 336.057C282.641 342.899 282.088 350.473 282.085 357.453L282.079 409.641C282.083 412.404 283.132 423.85 280.998 425.706C276.734 429.414 273.253 425.16 273.207 420.522C273.029 402.173 273.236 383.786 273.257 365.433C273.266 358.17 273.942 345.708 272.677 339.039C269.353 321.526 254.649 308.277 237.024 306.02C225.077 305.311 214.534 308.154 205.501 316.406C193.546 327.326 192.391 337.51 192.389 352.773L192.411 411.722C192.41 414.664 193.004 423.081 191.423 425.356C189.037 428.788 183.771 426.916 183.257 423.058C182.87 420.155 183.163 416.949 183.17 414.014L183.18 362.34C183.172 344.27 182.428 331.203 193.975 315.911C202.483 304.642 214.631 299.145 228.282 297.247Z"/>
	<path fill="#005DF1" transform="scale(2 2)" d="M174.206 190.039C185.575 188.329 191.405 194.71 199.77 199.95C210.84 206.885 220.62 206.145 233.209 206.252C237.694 209.04 237.038 214.263 231.394 215.057C215.466 217.298 201.254 212.04 188.905 202.596C173.906 191.126 153.105 204.253 143.559 216.896C134.715 228.771 131.836 244.197 135.048 258.535C135.841 262.076 138.082 265.732 138.412 269.29C138.904 274.595 126.595 280.684 125.179 248.918C123.967 221.735 145.923 191.091 174.206 190.039Z"/>
	<path fill="#005DF1" transform="scale(2 2)" d="M337.695 444.562C341.408 444.568 350.736 443.606 353.465 445.799C355.287 447.264 355.369 450.435 353.725 452.061C351.202 454.556 337.168 453.485 333.009 453.474C329.382 453.468 319.946 454.43 317.35 452.183C314.204 449.46 316.783 445.482 320.125 444.807C324.045 444.015 333.306 444.551 337.695 444.562Z"/>
	<path fill="#005DF1" transform="scale(2 2)" d="M106.73 444.562L124.4 444.535C128.089 444.533 142.738 442.576 139.557 450.547C138.934 452.108 137.744 452.857 136.251 453.474C131.566 453.47 107.534 454.128 105.021 452.743C100.951 450.501 102.728 445.592 106.73 444.562Z"/>
	<path fill="#005DF1" transform="scale(2 2)" d="M336.828 275.764C348.813 274.56 335.607 296.78 330.789 298.921L330.563 298.93C320.884 299.406 328.378 289.037 330.078 285.902C332.044 282.277 332.708 277.555 336.828 275.764Z"/>
</svg>
