<?xml version="1.0" encoding="utf-8" ?>
<svg xmlns="http://www.w3.org/2000/svg" xmlns:xlink="http://www.w3.org/1999/xlink" width="1024" height="1024">
	<path fill="#0745F2" transform="scale(2 2)" d="M348.703 327.239C347.969 303.161 347.518 278.109 347.48 253.973C347.437 227.585 353.051 231.449 370.969 218.552C387.363 206.753 397.604 190.879 407.047 173.352C409.09 169.558 412.461 160.764 415.378 158.231C422.785 151.801 435.572 157.273 435.101 167.484C434.943 170.915 432.783 174.634 431.481 177.797C422.869 198.736 408.847 218.428 391.849 233.278C384.989 239.27 376.265 242.459 370.806 247.362C370.272 273.144 372.034 300.854 372.023 327.239C383.117 336.888 379.647 348.986 380.445 362.518C379.768 374.431 380.655 390.38 381.155 402.466C381.52 411.306 383.696 421.258 378.15 428.97C372.363 437.016 356.727 439.21 348.873 433.327C339.467 426.282 341.409 413.727 341.226 403.417C341.021 391.898 340.941 371.955 339.358 361.336L339.287 360.873C339.59 350.409 336.281 331.245 348.703 327.239ZM372.721 358.702C370.336 350.932 375.501 338.853 367.085 333.756C360.085 329.515 347.915 332.139 346.81 341.333C346.241 346.063 347.043 355.797 347.511 360.873C347.395 373.167 348.172 387.308 348.627 399.644C348.94 408.149 346.081 428.23 358.355 429.386C377.008 431.143 373.926 417.253 373.648 405.476C373.301 390.705 372.02 373.151 372.721 358.702ZM355.929 325.03L360.989 325.03L364.247 325.03C364.253 301.514 364.149 278.939 363.435 255.466C363.306 251.235 361.932 245.762 365.179 242.461C370.304 237.252 378.346 234.394 384.219 229.832C401.171 216.666 421.381 188.39 427.641 167.206C426.858 164.236 425.703 162.772 422.555 162.725C418.106 165.75 416.62 171.397 414.284 175.984C405.466 193.297 393.835 211.14 377.997 222.912C359.095 236.961 354.846 230.07 354.908 255.252C354.966 278.538 355.94 301.625 355.929 325.03Z"/>
	<path fill="#02E" transform="scale(2 2)" d="M339.287 360.873C339.486 359.531 339.689 358.19 339.858 356.843C340.906 358.238 340.802 382.93 340.894 385.766C341.784 413.298 342.291 419.213 342.418 419.263L342.738 419.062C342.103 420.369 342.416 418.645 342.522 418.156C347.46 413.294 344.993 419.239 348.712 419.91L349.012 419.739C348.234 415.698 348.499 411.665 348.372 407.555L347.427 371.197C347.363 368.663 346.754 362.671 347.06 360.529L347.236 360.471L347.511 360.873C347.395 373.167 348.172 387.308 348.627 399.644C348.94 408.149 346.081 428.23 358.355 429.386C377.008 431.143 373.926 417.253 373.648 405.476C373.301 390.705 372.02 373.151 372.721 358.702L372.934 358.309C373.135 359.709 372.961 361.168 373.026 362.585C373.747 378.17 374.32 393.937 374.314 409.524C376.43 410.91 381.614 409.498 381.143 417.79C381.115 418.295 380.748 420.515 381.092 420.644C382.079 417.54 380.676 406.166 380.536 402.529L380.054 387.394C379.997 385.694 379.505 360.63 379.725 360.062C380.068 360.873 380.258 361.659 380.445 362.518C379.768 374.431 380.655 390.38 381.155 402.466C381.52 411.306 383.696 421.258 378.15 428.97C372.363 437.016 356.727 439.21 348.873 433.327C339.467 426.282 341.409 413.727 341.226 403.417C341.021 391.898 340.941 371.955 339.358 361.336L339.287 360.873Z"/>
	<path fill="#02E" transform="scale(2 2)" d="M121.28 334.906C118.063 330.985 114.387 327.41 111.137 323.489C91.1461 299.373 76.7759 261.623 79.8213 230.588C80.242 226.301 82.9979 208.461 87.5657 206.456C90.1731 205.311 93.5221 207.836 92.9245 210.661C92.5298 212.526 91.5577 214.51 90.9005 216.312C78.8714 249.286 97.6798 294.325 118.152 319.808C121.095 323.472 128.563 330.027 129.741 333.597C128.984 338.813 128.76 343.892 128.776 349.152C128.625 373.53 136.542 398.493 148.837 419.377C168.6 450.099 178.417 441.421 183.976 410.57C186.181 391.242 184.435 358.242 200.647 345.405C210.82 337.35 224.263 339.936 231.469 350.411C247.48 373.684 236.863 401.692 246.181 426.003C249.906 435.723 255.934 443.311 265.629 434.892C286.974 416.355 297.995 377.226 298.073 348.941C298.084 345.125 297.674 341.277 297.984 337.47L298.022 337.029L298.079 335.326C300.216 354.183 296.095 385.021 287.535 402.587C286.981 403.723 287.54 403.049 287.935 402.419C291.862 402.321 292.196 403.198 292.96 406.828C300.789 389.282 306.022 361.957 305.357 342.19C305.315 340.945 304.595 335.539 305.732 339.153C305.78 372.812 298.696 412.694 274.139 437.245C250.852 460.527 237.831 433.884 234.633 410.618C232.365 394.12 235.457 348.774 214.176 348.236C205.803 348.024 200.621 357.122 198.13 363.875C189.461 387.383 197.642 422.184 180.632 440.093C172.053 449.125 161.727 446.643 153.68 438.456C135.974 420.442 120.439 379.967 121.28 353.772C120.787 350.962 121.087 338.079 121.28 334.906Z"/>
	<path fill="#0745F2" transform="scale(2 2)" d="M121.28 334.906C118.063 330.985 114.387 327.41 111.137 323.489C91.1461 299.373 76.7759 261.623 79.8213 230.588C80.242 226.301 82.9979 208.461 87.5657 206.456C90.1731 205.311 93.5221 207.836 92.9245 210.661C92.5298 212.526 91.5577 214.51 90.9005 216.312C78.8714 249.286 97.6798 294.325 118.152 319.808C121.095 323.472 128.563 330.027 129.741 333.597C128.984 338.813 128.76 343.892 128.776 349.152C128.65 348.675 128.419 347.277 128.072 347.021C127.738 350.308 128.946 367.217 130.162 370.84C130.702 372.449 134.79 388.444 134.897 389.705L134.447 389.758L134.777 389.605C131.452 386.798 129.897 389.357 128.579 388.473C124.172 385.519 123.625 369.274 122.333 363.342C121.728 360.564 121.424 345.19 121.367 345.084C121.373 347.888 121.638 351.004 121.28 353.772C120.787 350.962 121.087 338.079 121.28 334.906Z"/>
	<path fill="#00B6F1" transform="scale(2 2)" d="M388.447 65.0926C396.169 65.0255 410.689 81.8046 416.322 87.6529C420.716 82.8796 432.089 70.359 437.222 66.7155C440.73 64.226 444.655 68.7679 442.429 72.1831C439.647 76.4515 426.041 88.3904 421.735 92.9167C425.445 96.4787 428.941 100.276 432.62 103.876C441.645 112.708 449.869 116.736 438.254 128.892C429.039 138.536 426.684 135.36 418.368 126.988C411.342 130.18 408.42 135.369 404.266 137.59C401.97 138.817 398.861 135.307 399.532 133.024C400.655 129.2 409.02 123.669 412.303 121.632C404.28 113.772 396.251 105.969 388.447 97.8877C380.391 103.211 379.596 108.357 374.646 115.747C364.942 130.233 346.213 134.789 330.168 137.926C331.485 141.192 334.043 143.957 336.148 146.741C340.349 149.694 344.941 153.08 350.364 152.733C364.55 151.825 356.399 153.829 359.28 164.256C361.197 171.194 366.699 174.719 370.806 180.123C371.106 171.317 373.01 163.458 377.311 155.735C389.93 133.077 397.447 141.87 394.442 146.688C393.528 148.153 391.847 149.396 390.656 150.665C375.81 166.487 380.31 183.674 377.054 188.014C373.777 192.382 364.887 184.188 362.334 181.961C355.913 176.361 351.828 169.055 351.204 160.516C332.145 160.634 315.263 135.428 323.114 131.566C324.462 130.903 331.091 130.009 333.121 129.551C346.027 126.645 362.483 121.208 369.495 109.212C374.537 100.588 374.719 99.0871 382.521 91.8835C377.323 86.639 369.448 81.7524 376.036 74.078C379.598 69.9288 382.697 65.573 388.447 65.0926ZM380.779 80.5429C386.309 84.3549 390.998 89.7221 395.764 94.4338L416.304 114.685C420.585 118.986 424.698 123.635 429.792 126.988C431.604 125.548 435.746 120.005 436.65 118.066C430.48 112.637 424.713 106.83 418.877 101.049L404.375 86.7725C402.385 84.7764 390.479 72.3587 389.253 71.7093C386.044 74.1299 383.132 77.291 380.779 80.5429Z"/>
	<path fill="#00B6F1" transform="scale(2 2)" d="M202.318 185.034C196.61 183.017 192.081 178.342 186.628 175.648C158.911 161.957 125.476 171.334 104.89 192.977C103.322 194.625 101.16 198.015 99.4973 199.211C96.2592 201.538 91.8402 198.534 93.4902 194.612C94.3343 192.606 96.5798 190.605 98.0353 189.017C121.128 163.814 157.781 153.805 189.588 168.603C198.433 172.718 203.156 179.716 213.674 179.624C223.957 179.535 229.191 173.362 237.816 169.105C278.32 149.116 324.967 171.149 341.243 211.476C343.065 216.865 344.749 222.15 345.579 227.804C349.825 256.738 335.727 296.404 318.047 320.13C314.127 325.39 309.158 330.405 305.732 335.951C305.731 337.018 305.718 338.086 305.732 339.153C304.595 335.539 305.315 340.945 305.357 342.19C306.022 361.957 300.789 389.282 292.96 406.828C292.196 403.198 291.862 402.321 287.935 402.419C287.54 403.049 286.981 403.723 287.535 402.587C296.095 385.021 300.216 354.183 298.079 335.326L298.022 337.029C297.889 335.885 297.974 334.745 298.022 333.597C299.323 330.259 302.472 327.407 304.738 324.628C328.157 295.905 348.863 247.54 332.87 211.476C316.877 177.308 276.181 158.2 241.063 176.043C232.966 180.157 229.034 184.933 219.436 186.742C213.664 187.552 207.735 187.399 202.318 185.034Z"/>
	<path fill="#0745F2" transform="scale(2 2)" d="M229.068 271.169C227.111 266.903 224.497 256.482 231.208 255.498C236.155 254.773 234.45 261.577 234.682 264.377C235.58 275.234 254.9 271.921 246.278 280.646C242.019 282.451 237.327 279.299 233.671 277.296C222.443 289.457 202.101 289.558 191.587 276.162C188.54 278.542 185.617 279.806 181.877 280.646L181.589 280.531C170.38 276.153 186.705 271.281 188.857 268.393C192.931 262.926 186.824 257.978 192.803 255.513C201.277 256.119 197.783 265.78 196.995 271.169C207.43 281.541 218.569 281.221 229.068 271.169Z"/>
	<path fill="#00B6F1" transform="scale(2 2)" d="M265.001 181.718C314.435 178.689 335.91 238.029 323.496 243.748C317.819 244.404 318.941 238.408 318.544 234.649C316.093 211.418 296.457 191.153 272.743 189.773C269.301 189.573 259.718 190.458 262.426 183.971C262.941 182.739 263.828 182.235 265.001 181.718Z"/>
	<path fill="#00B6F1" transform="scale(2 2)" d="M79.4527 149.776Q79.7893 149.761 80.1263 149.763Q80.4633 149.765 80.7997 149.783Q81.1362 149.801 81.4714 149.836Q81.8066 149.87 82.1396 149.922Q82.4727 149.973 82.8028 150.04Q83.133 150.108 83.4594 150.191Q83.7859 150.275 84.1078 150.374Q84.4297 150.474 84.7464 150.589Q85.0631 150.704 85.3737 150.835Q85.6843 150.966 85.9881 151.111Q86.292 151.257 86.5883 151.418Q86.8846 151.578 87.1726 151.753Q87.4607 151.928 87.7398 152.117Q88.019 152.305 88.2885 152.508Q88.558 152.71 88.8173 152.925Q89.0765 153.14 89.3249 153.368Q89.5733 153.596 89.8102 153.835Q90.0471 154.075 90.2719 154.326Q90.4967 154.577 90.709 154.839Q90.9212 155.1 91.1204 155.372Q91.3195 155.644 91.505 155.925Q91.6906 156.207 91.8621 156.497Q92.0336 156.787 92.1906 157.085Q92.3476 157.383 92.4899 157.689Q92.6321 157.994 92.7591 158.306Q92.8861 158.618 92.9977 158.936Q93.1092 159.254 93.205 159.577Q93.3008 159.9 93.3807 160.228Q93.4605 160.555 93.5241 160.886Q93.5878 161.217 93.6351 161.551Q93.6824 161.884 93.7133 162.22Q93.7441 162.555 93.7585 162.892Q93.7729 163.229 93.7707 163.566Q93.7685 163.903 93.7497 164.239Q93.731 164.575 93.6957 164.911Q93.6605 165.246 93.6088 165.579Q93.5571 165.912 93.4892 166.242Q93.4212 166.572 93.3372 166.898Q93.2531 167.224 93.1531 167.546Q93.0531 167.868 92.9374 168.184Q92.8217 168.501 92.6906 168.811Q92.5595 169.122 92.4133 169.425Q92.2672 169.729 92.1062 170.025Q91.9453 170.321 91.7701 170.609Q91.5948 170.897 91.4056 171.175Q91.2164 171.454 91.0138 171.723Q90.8112 171.993 90.5955 172.252Q90.3799 172.511 90.1518 172.759Q89.9237 173.007 89.6837 173.243Q89.4438 173.48 89.1924 173.704Q88.9411 173.929 88.6791 174.14Q88.4171 174.352 88.1449 174.551Q87.8728 174.75 87.5913 174.935Q87.3097 175.12 87.0194 175.291Q86.7291 175.462 86.4307 175.619Q86.1324 175.775 85.8267 175.917Q85.521 176.059 85.2087 176.185Q84.8964 176.312 84.5783 176.423Q84.2602 176.534 83.937 176.629Q83.6138 176.725 83.2863 176.804Q82.9588 176.883 82.6278 176.947Q82.2968 177.01 81.9631 177.057Q81.6295 177.103 81.2939 177.134Q80.9583 177.164 80.6216 177.178Q80.2856 177.192 79.9493 177.189Q79.613 177.187 79.2772 177.167Q78.9414 177.148 78.607 177.113Q78.2725 177.077 77.9402 177.025Q77.608 176.973 77.2786 176.905Q76.9493 176.837 76.6237 176.753Q76.298 176.669 75.977 176.568Q75.6559 176.468 75.3401 176.353Q75.0243 176.237 74.7145 176.106Q74.4048 175.975 74.1018 175.829Q73.7989 175.683 73.5035 175.522Q73.208 175.361 72.9208 175.186Q72.6337 175.011 72.3554 174.822Q72.0771 174.633 71.8085 174.431Q71.5398 174.229 71.2814 174.014Q71.0229 173.798 70.7754 173.571Q70.5278 173.343 70.2917 173.104Q70.0556 172.864 69.8315 172.613Q69.6074 172.362 69.3959 172.101Q69.1843 171.84 68.9859 171.568Q68.7874 171.296 68.6025 171.016Q68.4176 170.735 68.2467 170.445Q68.0758 170.155 67.9193 169.858Q67.7628 169.56 67.6211 169.255Q67.4793 168.95 67.3527 168.638Q67.2262 168.327 67.115 168.009Q67.0038 167.692 66.9083 167.369Q66.8128 167.047 66.7333 166.72Q66.6537 166.393 66.5903 166.063Q66.5268 165.733 66.4796 165.4Q66.4324 165.067 66.4016 164.732Q66.3708 164.397 66.3565 164.061Q66.3422 163.725 66.3443 163.389Q66.3465 163.052 66.3651 162.716Q66.3837 162.381 66.4188 162.046Q66.4538 161.712 66.5053 161.379Q66.5567 161.047 66.6244 160.717Q66.692 160.388 66.7757 160.062Q66.8595 159.736 66.9591 159.415Q67.0587 159.094 67.1739 158.778Q67.2891 158.462 67.4197 158.152Q67.5503 157.842 67.6959 157.539Q67.8415 157.236 68.0018 156.94Q68.1621 156.644 68.3367 156.357Q68.5113 156.069 68.6998 155.791Q68.8883 155.512 69.0902 155.243Q69.2921 154.974 69.507 154.716Q69.7218 154.457 69.9491 154.209Q70.1764 153.961 70.4156 153.725Q70.6547 153.488 70.9052 153.264Q71.1557 153.039 71.4168 152.827Q71.678 152.615 71.9493 152.416Q72.2205 152.218 72.5012 152.032Q72.7819 151.847 73.0713 151.676Q73.3607 151.504 73.6582 151.347Q73.9556 151.19 74.2604 151.048Q74.5652 150.906 74.8767 150.779Q75.1881 150.652 75.5053 150.54Q75.8226 150.429 76.1449 150.333Q76.4673 150.237 76.794 150.157Q77.1206 150.077 77.4509 150.013Q77.7811 149.949 78.114 149.901Q78.4469 149.853 78.7818 149.822Q79.1167 149.791 79.4527 149.776ZM81.632 169.634Q81.7829 169.596 81.9316 169.551Q82.0804 169.505 82.2268 169.452Q82.3732 169.4 82.5168 169.34Q82.6604 169.28 82.8009 169.213Q82.9414 169.147 83.0785 169.073Q83.2155 168.999 83.3487 168.919Q83.482 168.839 83.6111 168.752Q83.7403 168.665 83.865 168.572Q83.9897 168.479 84.1097 168.38Q84.2297 168.281 84.3447 168.177Q84.4596 168.072 84.5693 167.961Q84.679 167.851 84.7831 167.736Q84.8872 167.62 84.9855 167.499Q85.0838 167.379 85.1761 167.254Q85.2684 167.128 85.3543 166.999Q85.4403 166.869 85.5198 166.735Q85.5993 166.602 85.6721 166.464Q85.745 166.327 85.8109 166.186Q85.8769 166.045 85.9359 165.901Q85.9949 165.757 86.0467 165.61Q86.0985 165.464 86.143 165.315Q86.1875 165.165 86.2247 165.014Q86.2618 164.863 86.2915 164.711Q86.3212 164.558 86.3433 164.404Q86.3654 164.25 86.3799 164.095Q86.3945 163.94 86.4013 163.785Q86.4082 163.629 86.4074 163.474Q86.4067 163.318 86.3983 163.163Q86.3898 163.008 86.3738 162.853Q86.3577 162.698 86.3341 162.544Q86.3104 162.391 86.2792 162.238Q86.248 162.086 86.2094 161.935Q86.1708 161.784 86.1248 161.636Q86.0788 161.487 86.0255 161.341Q85.9723 161.195 85.9119 161.051Q85.8516 160.908 85.7842 160.768Q85.7169 160.628 85.6427 160.491Q85.5685 160.354 85.4877 160.221Q85.4069 160.088 85.3197 159.96Q85.2325 159.831 85.139 159.706Q85.0455 159.582 84.946 159.463Q84.8466 159.343 84.7413 159.228Q84.6361 159.114 84.5254 159.005Q84.4146 158.895 84.2987 158.792Q84.1827 158.688 84.0617 158.59Q83.9408 158.492 83.8152 158.401Q83.6896 158.309 83.5596 158.223Q83.4297 158.138 83.2957 158.059Q83.1616 157.98 83.0239 157.908Q82.8862 157.835 82.7451 157.77Q82.6039 157.705 82.4598 157.646Q82.3156 157.588 82.1687 157.537Q82.0219 157.485 81.8727 157.441Q81.7234 157.397 81.5722 157.361Q81.4211 157.324 81.2682 157.295Q81.1154 157.266 80.9614 157.245Q80.8073 157.223 80.6524 157.209Q80.4975 157.195 80.3421 157.189Q80.1866 157.183 80.0311 157.184Q79.8755 157.185 79.7203 157.194Q79.565 157.203 79.4103 157.22Q79.2557 157.237 79.102 157.261Q78.9484 157.285 78.7961 157.317Q78.6438 157.349 78.4933 157.388Q78.3435 157.427 78.1958 157.473Q78.0481 157.52 77.9029 157.573Q77.7577 157.627 77.6152 157.687Q77.4727 157.748 77.3334 157.815Q77.1941 157.882 77.0582 157.957Q76.9224 158.031 76.7903 158.111Q76.6583 158.192 76.5303 158.279Q76.4024 158.366 76.2788 158.46Q76.1553 158.553 76.0365 158.652Q75.9176 158.751 75.8038 158.856Q75.69 158.961 75.5814 159.071Q75.4729 159.182 75.3698 159.297Q75.2668 159.413 75.1696 159.533Q75.0723 159.653 74.9811 159.778Q74.8898 159.904 74.8048 160.033Q74.7198 160.162 74.6412 160.296Q74.5626 160.429 74.4907 160.566Q74.4187 160.703 74.3536 160.843Q74.2884 160.984 74.2302 161.127Q74.172 161.271 74.1208 161.417Q74.0697 161.563 74.0258 161.711Q73.9819 161.86 73.9453 162.01Q73.9087 162.16 73.8795 162.312Q73.8503 162.464 73.8286 162.618Q73.8068 162.771 73.7927 162.925Q73.7785 163.079 73.7718 163.234Q73.7652 163.388 73.7661 163.543Q73.7671 163.698 73.7756 163.852Q73.7841 164.007 73.8002 164.161Q73.8163 164.315 73.8399 164.468Q73.8635 164.621 73.8945 164.772Q73.9256 164.924 73.964 165.074Q74.0024 165.224 74.0481 165.372Q74.0938 165.52 74.1467 165.665Q74.1996 165.811 74.2596 165.953Q74.3195 166.096 74.3864 166.236Q74.4533 166.375 74.5269 166.511Q74.6005 166.648 74.6807 166.78Q74.7609 166.912 74.8475 167.041Q74.934 167.169 75.0268 167.293Q75.1195 167.417 75.2182 167.536Q75.317 167.655 75.4214 167.769Q75.5258 167.884 75.6357 167.993Q75.7456 168.102 75.8607 168.205Q75.9758 168.309 76.0958 168.406Q76.2158 168.504 76.3405 168.596Q76.4651 168.688 76.5941 168.773Q76.7231 168.859 76.8562 168.938Q76.9892 169.017 77.126 169.089Q77.2627 169.162 77.4028 169.228Q77.543 169.293 77.6862 169.352Q77.8293 169.411 77.9752 169.463Q78.1211 169.514 78.2694 169.559Q78.4176 169.603 78.5678 169.641Q78.7181 169.678 78.87 169.708Q79.0219 169.737 79.175 169.76Q79.3282 169.782 79.4823 169.797Q79.6363 169.812 79.7909 169.819Q79.9455 169.826 80.1003 169.826Q80.2551 169.825 80.4097 169.818Q80.5643 169.81 80.7183 169.794Q80.8723 169.779 81.0253 169.756Q81.1784 169.733 81.3302 169.702Q81.4819 169.672 81.632 169.634Z"/>
	<path fill="#0745F2" transform="scale(2 2)" d="M429.472 253.654Q429.804 253.597 430.138 253.556Q430.472 253.515 430.808 253.49Q431.144 253.466 431.481 253.458Q431.817 253.45 432.154 253.459Q432.49 253.467 432.826 253.493Q433.162 253.518 433.496 253.56Q433.83 253.602 434.162 253.66Q434.493 253.719 434.822 253.793Q435.15 253.868 435.474 253.959Q435.799 254.05 436.118 254.156Q436.437 254.263 436.751 254.385Q437.065 254.507 437.372 254.645Q437.679 254.783 437.98 254.935Q438.28 255.088 438.572 255.255Q438.864 255.422 439.148 255.604Q439.432 255.785 439.706 255.981Q439.98 256.176 440.245 256.384Q440.509 256.593 440.763 256.814Q441.016 257.036 441.259 257.269Q441.501 257.503 441.732 257.748Q441.963 257.994 442.181 258.25Q442.399 258.506 442.605 258.773Q442.81 259.04 443.002 259.317Q443.194 259.593 443.372 259.879Q443.55 260.165 443.714 260.459Q443.878 260.753 444.027 261.055Q444.176 261.357 444.31 261.666Q444.444 261.975 444.562 262.29Q444.681 262.605 444.784 262.926Q444.886 263.247 444.973 263.572Q445.06 263.897 445.131 264.227Q445.202 264.556 445.256 264.888Q445.31 265.22 445.348 265.555Q445.386 265.889 445.407 266.226Q445.429 266.562 445.434 266.898Q445.438 267.235 445.426 267.571Q445.414 267.908 445.386 268.243Q445.358 268.579 445.312 268.913Q445.268 269.246 445.206 269.577Q445.145 269.909 445.067 270.236Q444.989 270.564 444.895 270.887Q444.802 271.211 444.692 271.529Q444.582 271.847 444.457 272.16Q444.332 272.473 444.192 272.779Q444.051 273.085 443.896 273.383Q443.74 273.682 443.57 273.973Q443.4 274.263 443.216 274.545Q443.032 274.827 442.834 275.1Q442.637 275.372 442.426 275.635Q442.215 275.897 441.991 276.149Q441.767 276.4 441.531 276.641Q441.296 276.881 441.048 277.11Q440.801 277.338 440.542 277.554Q440.284 277.77 440.015 277.973Q439.747 278.176 439.468 278.365Q439.19 278.554 438.902 278.73Q438.615 278.905 438.319 279.066Q438.023 279.227 437.72 279.373Q437.417 279.52 437.107 279.651Q436.796 279.782 436.48 279.897Q436.164 280.013 435.842 280.113Q435.521 280.213 435.195 280.297Q434.868 280.38 434.539 280.448Q434.209 280.516 433.876 280.567Q433.547 280.618 433.216 280.652Q432.885 280.687 432.553 280.705Q432.221 280.724 431.888 280.726Q431.555 280.728 431.223 280.714Q430.89 280.7 430.559 280.67Q430.227 280.639 429.898 280.593Q429.568 280.547 429.241 280.484Q428.914 280.422 428.591 280.344Q428.268 280.265 427.948 280.171Q427.629 280.077 427.315 279.968Q427.001 279.859 426.692 279.734Q426.383 279.609 426.081 279.47Q425.779 279.33 425.484 279.176Q425.189 279.022 424.902 278.854Q424.615 278.686 424.337 278.503Q424.058 278.321 423.789 278.126Q423.519 277.93 423.26 277.722Q423 277.514 422.751 277.293Q422.502 277.072 422.264 276.839Q422.027 276.607 421.8 276.363Q421.574 276.119 421.36 275.864Q421.146 275.609 420.944 275.344Q420.743 275.08 420.555 274.805Q420.366 274.531 420.192 274.247Q420.017 273.964 419.856 273.673Q419.696 273.381 419.549 273.082Q419.403 272.784 419.272 272.478Q419.14 272.172 419.024 271.86Q418.907 271.549 418.806 271.232Q418.705 270.914 418.62 270.593Q418.534 270.271 418.464 269.946Q418.395 269.62 418.341 269.292Q418.287 268.964 418.25 268.633Q418.212 268.302 418.191 267.97Q418.169 267.638 418.164 267.305Q418.159 266.973 418.17 266.64Q418.181 266.307 418.208 265.976Q418.235 265.644 418.278 265.314Q418.322 264.984 418.381 264.657Q418.44 264.329 418.516 264.005Q418.591 263.681 418.682 263.361Q418.773 263.041 418.88 262.726Q418.986 262.41 419.108 262.101Q419.23 261.791 419.366 261.488Q419.503 261.184 419.654 260.888Q419.806 260.592 419.971 260.303Q420.137 260.014 420.317 259.734Q420.496 259.454 420.689 259.183Q420.882 258.912 421.088 258.65Q421.294 258.389 421.512 258.138Q421.731 257.887 421.961 257.647Q422.192 257.407 422.434 257.178Q422.676 256.95 422.928 256.733Q423.181 256.517 423.444 256.313Q423.707 256.109 423.98 255.918Q424.252 255.727 424.534 255.55Q424.816 255.373 425.106 255.21Q425.395 255.046 425.693 254.897Q425.991 254.748 426.295 254.614Q426.599 254.48 426.91 254.36Q427.221 254.241 427.537 254.137Q427.853 254.033 428.174 253.945Q428.495 253.856 428.819 253.783Q429.144 253.711 429.472 253.654ZM433.353 273.121Q433.497 273.084 433.638 273.039Q433.78 272.995 433.919 272.944Q434.059 272.893 434.196 272.836Q434.332 272.778 434.466 272.714Q434.6 272.649 434.731 272.579Q434.861 272.508 434.988 272.431Q435.115 272.355 435.238 272.272Q435.361 272.189 435.48 272.1Q435.599 272.011 435.714 271.917Q435.829 271.823 435.939 271.723Q436.048 271.623 436.153 271.518Q436.258 271.413 436.358 271.303Q436.458 271.193 436.552 271.079Q436.647 270.964 436.735 270.845Q436.824 270.726 436.907 270.603Q436.99 270.48 437.067 270.353Q437.143 270.226 437.214 270.096Q437.285 269.965 437.349 269.831Q437.413 269.697 437.471 269.561Q437.529 269.424 437.58 269.284Q437.631 269.145 437.675 269.003Q437.719 268.862 437.757 268.718Q437.794 268.574 437.824 268.429Q437.855 268.284 437.878 268.137Q437.901 267.991 437.918 267.843Q437.934 267.696 437.943 267.547Q437.952 267.399 437.954 267.251Q437.956 267.102 437.951 266.954Q437.946 266.806 437.933 266.658Q437.921 266.51 437.901 266.363Q437.882 266.216 437.855 266.07Q437.829 265.924 437.795 265.779Q437.761 265.634 437.721 265.492Q437.68 265.349 437.633 265.208Q437.586 265.068 437.532 264.929Q437.478 264.791 437.417 264.656Q437.356 264.52 437.289 264.388Q437.222 264.256 437.148 264.127Q437.075 263.998 436.995 263.872Q436.916 263.747 436.83 263.626Q436.744 263.505 436.653 263.388Q436.562 263.271 436.465 263.158Q436.368 263.046 436.266 262.938Q436.164 262.83 436.056 262.728Q435.949 262.625 435.837 262.528Q435.725 262.431 435.609 262.339Q435.492 262.247 435.371 262.161Q435.25 262.075 435.125 261.995Q435 261.915 434.871 261.841Q434.743 261.767 434.611 261.699Q434.479 261.631 434.344 261.57Q434.208 261.509 434.07 261.454Q433.932 261.399 433.792 261.351Q433.651 261.303 433.509 261.262Q433.366 261.221 433.222 261.187Q433.077 261.153 432.931 261.126Q432.786 261.099 432.638 261.079Q432.491 261.058 432.344 261.045Q432.196 261.033 432.047 261.027Q431.899 261.021 431.751 261.022Q431.602 261.024 431.454 261.032Q431.306 261.041 431.158 261.056Q431.011 261.072 430.864 261.095Q430.717 261.117 430.572 261.147Q430.371 261.188 430.174 261.242Q429.977 261.297 429.784 261.364Q429.59 261.431 429.402 261.511Q429.214 261.591 429.031 261.684Q428.848 261.776 428.672 261.88Q428.496 261.984 428.327 262.1Q428.159 262.216 427.998 262.343Q427.837 262.469 427.685 262.606Q427.534 262.744 427.391 262.89Q427.249 263.037 427.116 263.193Q426.984 263.35 426.862 263.514Q426.74 263.679 426.63 263.851Q426.519 264.023 426.421 264.202Q426.322 264.382 426.235 264.567Q426.149 264.752 426.074 264.943Q426 265.134 425.939 265.329Q425.878 265.524 425.83 265.723Q425.781 265.922 425.747 266.124Q425.712 266.325 425.69 266.529Q425.669 266.732 425.661 266.937Q425.654 267.141 425.659 267.346Q425.665 267.55 425.685 267.754Q425.704 267.958 425.737 268.16Q425.77 268.362 425.816 268.561Q425.863 268.76 425.922 268.956Q425.982 269.152 426.054 269.343Q426.126 269.535 426.211 269.721Q426.296 269.907 426.393 270.087Q426.49 270.267 426.599 270.441Q426.708 270.614 426.828 270.779Q426.948 270.945 427.079 271.102Q427.21 271.26 427.351 271.408Q427.492 271.556 427.643 271.695Q427.793 271.833 427.953 271.962Q428.112 272.09 428.28 272.207Q428.448 272.325 428.623 272.431Q428.798 272.537 428.979 272.631Q429.161 272.725 429.349 272.807Q429.536 272.888 429.729 272.957Q429.922 273.027 430.118 273.083Q430.315 273.139 430.515 273.182Q430.715 273.225 430.918 273.254Q431.121 273.284 431.325 273.3Q431.529 273.316 431.733 273.318Q431.938 273.321 432.142 273.31Q432.347 273.298 432.55 273.274Q432.753 273.249 432.954 273.211Q433.155 273.173 433.353 273.121Z"/>
	<path fill="#00B6F1" transform="scale(2 2)" d="M181.877 194.003C184.873 194.291 188.295 197.296 190.98 198.705C204.388 205.743 223.245 205.78 236.82 198.686C238.596 197.757 240.234 196.404 242.092 195.66C247.124 193.645 250.449 199.237 244.836 203.122C211.475 223.615 167.476 200.459 181.877 194.003Z"/>
	<path fill="#00B6F1" transform="scale(2 2)" d="M141.162 232.351C159.637 228.603 168.194 259.016 157.656 257.412C151.664 256.5 157.891 241.89 143.914 240.075C129.98 237.794 131.422 253.874 129.831 255.756C120.789 266.454 117.339 233.274 141.162 232.351Z"/>
	<path fill="#00B6F1" transform="scale(2 2)" d="M281.402 232.351C300.594 229.855 306.862 259.288 297.853 257.527C291.348 256.255 297.618 242.485 283.765 240.13L283.425 240.075C269.705 238.64 272.077 251.446 269.617 255.693C267.636 259.114 262.986 257.021 262.572 253.591C261.172 242.003 270.648 233.602 281.402 232.351Z"/>
	<path fill="#02E" transform="scale(2 2)" d="M302.966 415.469C308.877 417.186 312.063 424.563 324.361 426.196C326.411 426.468 329.158 426.341 331.036 427.173C334.337 428.637 333.259 433.112 330.168 434.035C325.107 434.06 320.317 433.108 315.507 431.581C310.991 430.148 290.708 420.113 302.966 415.469Z"/>
	<path fill="#00B6F1" transform="scale(2 2)" d="M156.683 181.718C159.104 180.975 160.849 181.758 161.72 184.106C164.114 190.558 152.868 189.248 149.766 189.759C144.103 190.692 139.064 192.942 133.722 194.864C129.989 195.981 125.725 192.286 129.185 188.95C133.979 184.327 149.285 181.514 156.683 181.718Z"/>
	<path fill="#02E" transform="scale(2 2)" d="M309.783 399.51C313.846 400.208 317.559 404.117 321.416 405.722C323.949 406.777 326.791 406.237 329.25 407.171C333.185 408.666 331.635 413.005 328.381 414.068C320.524 414.982 297.445 404.98 309.783 399.51Z"/>
	<path fill="#00B6F1" transform="scale(2 2)" d="M103.835 220.268C112.078 219.439 107.605 228.585 106.871 232.802C106.175 236.797 106.947 240.729 103.835 243.748C93.8828 246.259 99.0139 223.472 103.835 220.268Z"/>
	<path fill="#00B6F1" transform="scale(2 2)" d="M211.676 118.066C215.132 118.037 222.846 117.269 225.531 119.338C228.698 121.779 226.099 126.044 221.562 126.216C218.065 126.183 210.369 127.185 207.711 125.056C203.541 121.717 206.979 118.446 211.676 118.066Z"/>
	<path fill="#00B6F1" transform="scale(2 2)" d="M288.82 117.019C291.416 116.895 292.936 117.412 294.653 119.509C294.957 123.524 296.147 133.831 292.662 136.715C282.315 139.323 286.705 118.423 288.82 117.019Z"/>
	<path fill="#00B6F1" transform="scale(2 2)" d="M299.801 105.589C303.552 105.681 307.874 105.089 311.54 105.72C316.89 106.641 316.97 111.336 312.657 113.676C309.069 114.181 293.59 115.814 296.991 107.851C297.535 106.576 298.572 106.058 299.801 105.589Z"/>
	<path fill="#00B6F1" transform="scale(2 2)" d="M290.031 82.4938C298.753 82.6429 295.17 100.358 291.489 102.273C289.948 102.188 288.342 101.97 287.476 100.48C286.12 98.147 284.663 85.0405 290.031 82.4938Z"/>
	<path fill="#00B6F1" transform="scale(2 2)" d="M268.355 105.589C271.901 105.446 278.213 104.98 281.484 106.103C285.654 107.534 284.924 112.096 281.402 113.676C278.03 113.818 271.235 114.2 268.23 113.257C263.885 111.894 264.714 107.081 268.355 105.589Z"/>
	<path fill="#00B6F1" transform="scale(2 2)" d="M181.877 118.066C185.017 118.023 191.12 117.27 193.657 119.341C197.848 122.762 192.723 126.019 188.304 126.216C185.285 126.104 170.711 126.907 176.602 119.803C177.952 118.175 179.937 118.189 181.877 118.066Z"/>
	<path fill="#00B6F1" transform="scale(2 2)" d="M199.272 95.5027C207.252 94.1284 206.33 111.284 202.318 114.542C195.243 116.093 194.522 98.7217 199.272 95.5027Z"/>
	<path fill="#00B6F1" transform="scale(2 2)" d="M199.272 129.279C201.991 129.044 203.108 129.409 204.753 131.757C204.795 136.027 206.618 144.055 202.318 146.741C195.312 148.416 194.381 131.634 199.272 129.279Z"/>
	<path fill="#02E" transform="scale(2 2)" d="M314.569 385.184C316.921 385.417 318.731 386.773 320.933 387.435C323.789 388.294 331.275 388.108 329.333 393.117C328.787 394.526 327.842 394.974 326.512 395.541C321.489 396.481 304.846 390.716 314.569 385.184Z"/>
	<path fill="#02E" transform="scale(2 2)" d="M317.259 368.212C322.039 369.096 331.477 367.334 330.557 373.116C330.335 374.512 329.475 375.431 328.381 376.243C325.632 376.763 321.261 376.624 318.514 376.095C313.761 375.179 313.481 370.48 317.259 368.212Z"/>
	<path fill="#00B6F1" transform="scale(2 2)" d="M117.333 198.723C127.195 198.841 118.986 209.371 114.667 211.476C104.991 211.368 112.564 201.145 117.333 198.723Z"/>
	<path fill="#00B6F1" transform="scale(2 2)" d="M116.563 102.273C123.218 102.088 122.714 111.723 118.259 114.542C112.663 114.553 111.675 104.537 116.563 102.273Z"/>
	<path fill="#00B6F1" transform="scale(2 2)" d="M117.333 124.266C123.488 125.059 121.996 134.304 117.333 136.715C112.415 134.503 111.711 125.959 117.333 124.266Z"/>
	<path fill="#00B6F1" transform="scale(2 2)" d="M126.249 115.587C135.508 115.132 137.13 121.011 130.665 122.814C121.463 123.858 120.956 116.922 126.249 115.587Z"/>
	<path fill="#00B6F1" transform="scale(2 2)" d="M104.742 115.587C111.949 114.748 115.341 120.395 107.989 122.814C98.9265 123.397 98.3237 116.382 104.742 115.587Z"/>
</svg>
