<?xml version="1.0" encoding="utf-8" ?>
<svg xmlns="http://www.w3.org/2000/svg" xmlns:xlink="http://www.w3.org/1999/xlink" width="1024" height="1024">
	<defs>
		<linearGradient id="gradient_0" gradientUnits="userSpaceOnUse" x1="266.61005" y1="476.44717" x2="108.15451" y2="236.855">
			<stop offset="0" stop-color="#220BEF"/>
			<stop offset="1" stop-color="#06AFEF"/>
		</linearGradient>
	</defs>
	<path fill="url(#gradient_0)" transform="scale(2 2)" d="M123.066 274.949C96.7699 237.286 142.335 197.699 174.551 221.37C192.092 234.258 194.504 257.769 181.752 274.949C187.882 278.075 192.214 279.847 197.536 284.559C201.038 278.281 210.02 262.322 215.726 259.219C226.943 253.118 240.453 264.407 236.194 276.696C234.983 280.192 232.388 283.581 230.447 286.717L221.584 301.243C213.823 313.992 210.2 326.656 191.787 319.814C191.55 343.132 192.544 367.156 191.744 390.341C191.364 401.359 185.373 416.237 193.705 425.306C199.469 431.578 209.112 431.85 215.191 425.905C222.68 418.583 219.986 408.337 220.145 398.993C220.589 373.034 232.563 321.996 266.748 323.009C301.881 324.051 312.952 377.932 312.797 406.533C312.736 417.786 314.517 430.331 329.387 430.703C336.59 430.884 341.308 426.119 346.213 421.517C345.21 425.702 336.372 430.669 331.926 431.131C329.143 431.42 321.344 431.33 326.048 437.838C342.35 441.502 349.658 424.959 354.228 424.31C351.552 427.91 347.048 431.839 343.413 434.41C329.258 444.425 309.922 435.901 305.455 419.669C303.727 413.393 304.627 406.244 304.443 399.776C303.934 381.849 299.239 360.441 288.758 345.628C279.951 333.181 266.136 325.614 252.497 335.625C235.457 348.133 229.325 376.261 228.464 396.16C227.844 410.483 231.872 423.742 218.184 433.667C208.156 440.939 193.883 438.856 186.571 428.829C178.749 442.026 161.737 440.113 159.188 426.788C157.796 419.508 161.432 399.744 161.622 390.963C161.932 376.531 143.523 375.355 141.952 388.521C141.015 396.373 144.398 413.443 144.694 422.541C145.256 439.785 121.441 443.662 116.468 427.486C114.774 421.978 112.305 397.875 111.875 391.575C110.502 371.422 111.354 345.317 111.7 324.937C106.207 336.987 107.436 346.331 103.786 355.433C98.138 369.521 76.1599 365.657 76.169 350.587C76.1709 347.442 77.0555 344.112 77.6435 341.028C83.2126 311.819 92.7932 285.979 123.066 274.949ZM129.395 281.135C108.732 288.529 96.4839 301.656 90.2258 322.13C88.9034 326.456 83.0723 349.631 84.047 352.09C85.482 355.711 89.3298 357.86 93.0174 356.019C100.358 352.355 98.4464 317.636 113.702 309.649C122.823 304.873 119.66 330.453 119.662 334.084L119.663 369.938C119.659 380.358 119.419 390.362 120.936 400.692C121.883 407.313 122.418 419.201 123.958 424.78C124.943 428.35 126.86 429.322 130.289 430.145C137.561 428.006 136.545 423.41 135.962 416.891C134.577 401.396 128.786 378.297 146.664 372.337C157.749 368.642 169.64 377.73 169.868 389.221C170.011 396.439 168.367 408.513 167.513 415.972C166.689 423.168 165.072 427.76 173.243 430.145C181.262 427.253 179.968 421.182 180.892 413.827C183.239 395.143 183.764 383.916 183.753 365.054L183.719 316.706C183.697 297.765 197.317 321.623 205.898 311.247C209.251 307.193 212.41 300.778 215.249 296.183L223.577 282.882C225.734 279.434 230.332 274.163 228.77 269.814C227.77 267.028 224.995 264.974 221.999 265.762C216.026 266.407 209.029 280.791 205.676 286.349C200.191 295.438 200.921 297.753 193.266 291.068C188.304 286.734 181.746 283.951 175.839 281.135C160.003 291.367 144.658 292.14 129.395 281.135ZM154.373 281.224Q155.093 281.183 155.81 281.107Q156.528 281.031 157.24 280.92Q157.953 280.809 158.659 280.663Q159.366 280.517 160.064 280.337Q160.763 280.157 161.451 279.943Q162.14 279.728 162.817 279.481Q163.495 279.233 164.159 278.952Q164.824 278.672 165.474 278.359Q166.124 278.046 166.758 277.702Q167.391 277.358 168.008 276.983Q168.624 276.608 169.221 276.204Q169.818 275.799 170.395 275.366Q170.971 274.932 171.526 274.471Q172.081 274.01 172.612 273.523Q173.144 273.035 173.651 272.522Q174.158 272.009 174.639 271.471Q175.12 270.934 175.574 270.374Q176.029 269.814 176.455 269.232Q176.881 268.65 177.279 268.048Q177.676 267.446 178.043 266.825Q178.411 266.205 178.747 265.567Q179.084 264.929 179.389 264.275Q179.693 263.621 179.966 262.954Q180.238 262.286 180.478 261.605Q180.717 260.925 180.923 260.234Q181.129 259.542 181.301 258.842Q181.473 258.141 181.61 257.433Q181.747 256.725 181.85 256.011Q181.952 255.297 182.019 254.579Q182.087 253.861 182.119 253.14Q182.151 252.42 182.148 251.699Q182.145 250.977 182.106 250.257Q182.067 249.537 181.994 248.819Q181.92 248.102 181.811 247.389Q181.702 246.676 181.559 245.969Q181.415 245.262 181.237 244.563Q181.059 243.864 180.847 243.175Q180.635 242.485 180.389 241.807Q180.144 241.129 179.865 240.464Q179.587 239.798 179.276 239.147Q178.965 238.496 178.623 237.861Q178.281 237.226 177.908 236.609Q177.535 235.992 177.132 235.393Q176.729 234.795 176.298 234.217Q175.866 233.639 175.407 233.083Q174.948 232.527 174.462 231.994Q173.976 231.461 173.464 230.952Q172.953 230.444 172.417 229.961Q171.881 229.478 171.322 229.022Q170.764 228.566 170.183 228.138Q169.603 227.709 169.002 227.31Q168.401 226.911 167.782 226.542Q167.162 226.172 166.525 225.834Q165.888 225.495 165.235 225.188Q164.583 224.881 163.916 224.607Q163.249 224.332 162.569 224.091Q161.89 223.849 161.199 223.641Q160.508 223.433 159.808 223.259Q159.108 223.085 158.401 222.946Q157.693 222.806 156.979 222.701Q156.266 222.597 155.548 222.527Q154.83 222.457 154.109 222.423Q153.389 222.389 152.668 222.39Q151.946 222.391 151.226 222.427Q150.503 222.463 149.782 222.535Q149.062 222.607 148.345 222.715Q147.629 222.822 146.919 222.964Q146.209 223.107 145.507 223.284Q144.805 223.461 144.112 223.672Q143.42 223.884 142.738 224.129Q142.057 224.374 141.388 224.652Q140.72 224.931 140.066 225.242Q139.412 225.553 138.774 225.895Q138.136 226.238 137.516 226.612Q136.895 226.985 136.294 227.389Q135.693 227.793 135.112 228.226Q134.532 228.658 133.973 229.119Q133.414 229.58 132.879 230.068Q132.344 230.555 131.833 231.069Q131.322 231.582 130.838 232.12Q130.353 232.658 129.895 233.219Q129.437 233.78 129.008 234.363Q128.578 234.946 128.177 235.55Q127.777 236.153 127.407 236.775Q127.036 237.398 126.697 238.037Q126.358 238.677 126.05 239.333Q125.743 239.989 125.468 240.659Q125.193 241.329 124.952 242.011Q124.71 242.694 124.503 243.388Q124.295 244.081 124.122 244.785Q123.948 245.488 123.81 246.198Q123.671 246.909 123.568 247.626Q123.464 248.343 123.396 249.064Q123.328 249.785 123.296 250.508Q123.263 251.232 123.266 251.956Q123.269 252.68 123.308 253.403Q123.347 254.126 123.421 254.847Q123.495 255.567 123.605 256.283Q123.714 256.999 123.859 257.708Q124.003 258.418 124.183 259.12Q124.362 259.821 124.576 260.513Q124.789 261.205 125.036 261.886Q125.284 262.566 125.564 263.234Q125.845 263.902 126.158 264.555Q126.471 265.208 126.816 265.845Q127.16 266.482 127.536 267.101Q127.912 267.72 128.317 268.32Q128.723 268.92 129.157 269.499Q129.592 270.078 130.055 270.636Q130.517 271.193 131.007 271.727Q131.496 272.26 132.011 272.77Q132.526 273.279 133.066 273.762Q133.605 274.245 134.168 274.701Q134.73 275.157 135.315 275.585Q135.899 276.013 136.504 276.411Q137.108 276.81 137.732 277.178Q138.355 277.547 138.996 277.884Q139.637 278.221 140.294 278.526Q140.95 278.832 141.621 279.104Q142.292 279.377 142.976 279.616Q143.659 279.856 144.354 280.061Q145.048 280.267 145.752 280.438Q146.455 280.609 147.167 280.745Q147.878 280.882 148.595 280.983Q149.312 281.084 150.033 281.15Q150.754 281.215 151.478 281.246Q152.202 281.276 152.926 281.27Q153.65 281.265 154.373 281.224Z"/>
	<path fill="#06AFEF" transform="scale(2 2)" d="M139.773 257.536C142.894 257.46 145.073 260.147 147.733 261.406C156.789 265.691 166.292 251.504 168.504 262.401C167.719 263.893 166.839 264.75 165.521 265.762C148.538 276.607 128.892 261.78 139.773 257.536Z"/>
	<path fill="#06AFEF" transform="scale(2 2)" d="M162.814 241.771C169.236 241.274 169.595 248.506 164.191 250.469C158.083 249.589 156.882 243.622 162.814 241.771Z"/>
	<path fill="#06AFEF" transform="scale(2 2)" d="M140.413 241.778Q140.692 241.7 140.979 241.659Q141.266 241.618 141.555 241.615Q141.845 241.612 142.133 241.648Q142.42 241.684 142.701 241.757Q142.981 241.83 143.249 241.94Q143.517 242.05 143.769 242.194Q144.02 242.338 144.25 242.514Q144.48 242.69 144.685 242.895Q144.89 243.1 145.066 243.33Q145.242 243.56 145.386 243.812Q145.53 244.063 145.639 244.332Q145.749 244.6 145.822 244.88Q145.895 245.161 145.93 245.448Q145.966 245.736 145.963 246.026Q145.96 246.315 145.919 246.602Q145.878 246.889 145.799 247.168Q145.72 247.447 145.606 247.713Q145.491 247.979 145.342 248.227Q145.193 248.476 145.013 248.703Q144.832 248.929 144.623 249.13Q144.414 249.331 144.181 249.503Q143.947 249.674 143.693 249.813Q143.439 249.952 143.169 250.057Q142.899 250.161 142.617 250.229Q142.514 250.254 142.41 250.274Q142.306 250.293 142.201 250.308Q142.096 250.323 141.991 250.332Q141.885 250.342 141.779 250.346Q141.673 250.351 141.568 250.35Q141.462 250.349 141.356 250.344Q141.25 250.338 141.145 250.327Q141.039 250.316 140.935 250.3Q140.83 250.284 140.726 250.263Q140.622 250.242 140.52 250.216Q140.417 250.19 140.316 250.159Q140.215 250.128 140.115 250.092Q140.015 250.056 139.917 250.015Q139.82 249.974 139.724 249.929Q139.628 249.884 139.535 249.834Q139.441 249.784 139.351 249.729Q139.26 249.675 139.172 249.616Q139.083 249.557 138.998 249.494Q138.913 249.431 138.831 249.364Q138.749 249.297 138.671 249.226Q138.592 249.155 138.517 249.081Q138.442 249.006 138.37 248.928Q138.299 248.85 138.231 248.768Q138.164 248.687 138.1 248.602Q138.037 248.517 137.977 248.429Q137.918 248.342 137.863 248.251Q137.808 248.161 137.757 248.067Q137.707 247.974 137.661 247.879Q137.615 247.784 137.573 247.686Q137.532 247.589 137.496 247.489Q137.459 247.39 137.427 247.289Q137.396 247.188 137.369 247.085Q137.342 246.982 137.321 246.879Q137.299 246.775 137.282 246.671Q137.265 246.566 137.254 246.461Q137.242 246.355 137.236 246.25Q137.229 246.144 137.228 246.038Q137.227 245.932 137.23 245.826Q137.234 245.72 137.243 245.615Q137.252 245.509 137.266 245.404Q137.28 245.299 137.299 245.195Q137.318 245.091 137.342 244.988Q137.366 244.885 137.396 244.783Q137.425 244.681 137.459 244.581Q137.493 244.48 137.532 244.382Q137.57 244.283 137.614 244.187Q137.657 244.09 137.706 243.996Q137.754 243.901 137.807 243.81Q137.859 243.718 137.916 243.628Q137.973 243.539 138.035 243.453Q138.096 243.366 138.162 243.283Q138.227 243.2 138.297 243.12Q138.366 243.04 138.439 242.963Q138.512 242.887 138.589 242.814Q138.666 242.741 138.746 242.672Q138.827 242.603 138.91 242.538Q138.994 242.473 139.08 242.412Q139.167 242.351 139.256 242.294Q139.346 242.237 139.438 242.185Q139.53 242.133 139.625 242.085Q139.719 242.037 139.816 241.994Q139.913 241.951 140.011 241.912Q140.11 241.874 140.211 241.84Q140.311 241.807 140.413 241.778Z"/>
	<path fill="#220BEF" transform="scale(2 2)" d="M340.329 106.16Q342.053 106.102 343.779 106.13Q345.504 106.157 347.225 106.268Q348.947 106.38 350.661 106.576Q352.376 106.772 354.078 107.052Q355.781 107.331 357.467 107.694Q359.154 108.057 360.821 108.503Q362.488 108.948 364.131 109.474Q365.774 110.001 367.389 110.607Q369.005 111.214 370.588 111.899Q372.172 112.584 373.72 113.345Q375.268 114.107 376.777 114.944Q378.286 115.781 379.752 116.691Q381.218 117.6 382.637 118.581Q384.057 119.561 385.427 120.611Q386.797 121.66 388.113 122.775Q389.43 123.89 390.69 125.068Q391.951 126.246 393.152 127.485Q394.353 128.723 395.492 130.019Q396.631 131.315 397.705 132.666Q398.779 134.016 399.786 135.417Q400.792 136.819 401.729 138.268Q402.665 139.717 403.529 141.21Q404.394 142.703 405.184 144.237Q405.974 145.771 406.688 147.342Q407.402 148.912 408.038 150.516Q408.674 152.12 409.23 153.753Q409.787 155.386 410.263 157.045Q410.738 158.703 411.132 160.383Q411.526 162.063 411.837 163.76Q412.148 165.457 412.375 167.168Q412.603 168.878 412.746 170.597Q412.889 172.317 412.948 174.041Q413.007 175.765 412.981 177.491Q412.955 179.216 412.844 180.938Q412.734 182.659 412.539 184.374Q412.344 186.088 412.065 187.791Q411.787 189.493 411.425 191.18Q411.063 192.867 410.619 194.535Q410.175 196.202 409.649 197.845Q409.124 199.489 408.519 201.104Q407.913 202.72 407.229 204.304Q406.545 205.888 405.785 207.437Q405.024 208.985 404.188 210.495Q403.352 212.004 402.444 213.471Q401.535 214.937 400.555 216.358Q399.575 217.778 398.527 219.148Q397.479 220.519 396.365 221.836Q395.251 223.154 394.074 224.415Q392.896 225.676 391.658 226.878Q390.421 228.08 389.125 229.22Q387.83 230.36 386.48 231.435Q385.131 232.51 383.73 233.517Q382.329 234.524 380.881 235.462Q379.432 236.399 377.94 237.265Q376.447 238.13 374.914 238.921Q373.38 239.712 371.81 240.427Q370.24 241.142 368.636 241.779Q367.033 242.416 365.4 242.974Q363.767 243.531 362.109 244.008Q360.451 244.485 358.772 244.88Q357.092 245.275 355.395 245.587Q353.698 245.899 351.988 246.128Q350.278 246.356 348.559 246.501Q346.839 246.645 345.115 246.705Q343.389 246.765 341.663 246.74Q339.936 246.715 338.213 246.606Q336.489 246.496 334.773 246.302Q333.057 246.108 331.353 245.83Q329.649 245.552 327.96 245.19Q326.272 244.829 324.603 244.385Q322.934 243.941 321.289 243.416Q319.644 242.891 318.027 242.285Q316.41 241.68 314.824 240.996Q313.239 240.312 311.688 239.551Q310.138 238.79 308.628 237.954Q307.117 237.118 305.649 236.208Q304.181 235.299 302.759 234.319Q301.338 233.338 299.966 232.289Q298.594 231.241 297.275 230.126Q295.957 229.011 294.694 227.832Q293.432 226.654 292.229 225.415Q291.026 224.176 289.886 222.88Q288.745 221.583 287.669 220.232Q286.594 218.881 285.586 217.479Q284.578 216.077 283.64 214.627Q282.702 213.177 281.836 211.683Q280.97 210.189 280.179 208.654Q279.388 207.119 278.673 205.548Q277.958 203.976 277.321 202.371Q276.684 200.766 276.126 199.131Q275.569 197.497 275.093 195.837Q274.616 194.177 274.221 192.496Q273.827 190.815 273.516 189.117Q273.204 187.418 272.976 185.706Q272.749 183.995 272.605 182.274Q272.462 180.553 272.403 178.827Q272.344 177.101 272.37 175.375Q272.396 173.648 272.507 171.925Q272.618 170.201 272.813 168.486Q273.008 166.77 273.287 165.066Q273.567 163.362 273.929 161.673Q274.292 159.985 274.737 158.317Q275.182 156.648 275.708 155.003Q276.234 153.359 276.841 151.742Q277.447 150.125 278.132 148.54Q278.817 146.955 279.579 145.405Q280.341 143.856 281.178 142.345Q282.016 140.835 282.926 139.368Q283.836 137.9 284.817 136.479Q285.799 135.058 286.849 133.687Q287.898 132.316 289.014 130.998Q290.13 129.681 291.309 128.419Q292.488 127.158 293.728 125.955Q294.968 124.753 296.265 123.614Q297.562 122.474 298.914 121.399Q300.266 120.324 301.668 119.317Q303.071 118.31 304.521 117.373Q305.972 116.436 307.467 115.571Q308.961 114.707 310.497 113.916Q312.032 113.126 313.604 112.412Q315.177 111.698 316.782 111.062Q318.388 110.426 320.022 109.87Q321.657 109.314 323.317 108.838Q324.977 108.363 326.659 107.969Q328.34 107.576 330.039 107.266Q331.738 106.955 333.449 106.729Q335.161 106.502 336.882 106.36Q338.603 106.218 340.329 106.16ZM345.852 238.652Q347.382 238.573 348.906 238.418Q350.43 238.264 351.944 238.035Q353.459 237.806 354.96 237.503Q356.462 237.2 357.947 236.823Q359.432 236.447 360.896 235.998Q362.361 235.549 363.801 235.029Q365.242 234.508 366.656 233.918Q368.069 233.328 369.452 232.669Q370.835 232.01 372.183 231.283Q373.532 230.557 374.844 229.766Q376.155 228.974 377.426 228.119Q378.697 227.264 379.925 226.348Q381.152 225.432 382.333 224.456Q383.514 223.481 384.646 222.448Q385.778 221.416 386.857 220.329Q387.937 219.243 388.962 218.105Q389.987 216.966 390.955 215.779Q391.923 214.592 392.831 213.358Q393.74 212.125 394.587 210.849Q395.433 209.572 396.216 208.256Q397 206.939 397.717 205.586Q398.435 204.232 399.085 202.845Q399.735 201.458 400.316 200.041Q400.897 198.624 401.408 197.18Q401.919 195.736 402.359 194.268Q402.799 192.801 403.165 191.314Q403.532 189.827 403.826 188.323Q404.119 186.82 404.339 185.304Q404.558 183.788 404.703 182.263Q404.847 180.738 404.917 179.207Q404.986 177.677 404.981 176.145Q404.975 174.614 404.894 173.084Q404.813 171.554 404.657 170.031Q404.501 168.507 404.271 166.992Q404.04 165.478 403.736 163.977Q403.431 162.476 403.053 160.991Q402.675 159.507 402.225 158.043Q401.775 156.578 401.253 155.138Q400.731 153.698 400.14 152.285Q399.548 150.872 398.887 149.49Q398.227 148.108 397.499 146.76Q396.772 145.412 395.979 144.101Q395.186 142.791 394.33 141.52Q393.474 140.25 392.556 139.024Q391.639 137.797 390.662 136.617Q389.686 135.437 388.652 134.306Q387.619 133.176 386.531 132.097Q385.443 131.018 384.304 129.994Q383.165 128.971 381.977 128.004Q380.788 127.037 379.554 126.13Q378.32 125.223 377.042 124.377Q375.765 123.532 374.448 122.75Q373.131 121.968 371.777 121.252Q370.422 120.536 369.035 119.887Q367.647 119.238 366.229 118.658Q364.812 118.078 363.367 117.569Q361.923 117.059 360.455 116.621Q358.987 116.183 357.499 115.818Q356.012 115.452 354.508 115.16Q353.004 114.868 351.488 114.65Q349.972 114.433 348.447 114.289Q346.922 114.146 345.391 114.078Q343.861 114.01 342.329 114.017Q340.798 114.025 339.268 114.107Q337.74 114.189 336.219 114.346Q334.697 114.503 333.185 114.735Q331.672 114.966 330.173 115.272Q328.674 115.577 327.192 115.956Q325.71 116.334 324.248 116.785Q322.786 117.236 321.348 117.758Q319.909 118.28 318.499 118.872Q317.088 119.463 315.708 120.124Q314.328 120.784 312.982 121.511Q311.636 122.238 310.327 123.031Q309.018 123.823 307.75 124.678Q306.482 125.534 305.257 126.45Q304.032 127.367 302.854 128.343Q301.675 129.318 300.546 130.351Q299.417 131.383 298.34 132.469Q297.263 133.556 296.24 134.694Q295.217 135.831 294.252 137.018Q293.286 138.205 292.38 139.437Q291.474 140.67 290.629 141.945Q289.784 143.221 289.003 144.536Q288.222 145.852 287.506 147.204Q286.791 148.556 286.142 149.942Q285.494 151.327 284.914 152.743Q284.334 154.159 283.824 155.601Q283.315 157.044 282.876 158.51Q282.438 159.975 282.072 161.461Q281.706 162.946 281.414 164.448Q281.121 165.949 280.902 167.464Q280.684 168.978 280.539 170.501Q280.395 172.024 280.326 173.552Q280.257 175.081 280.263 176.61Q280.268 178.14 280.349 179.668Q280.43 181.196 280.585 182.718Q280.741 184.24 280.971 185.752Q281.201 187.265 281.505 188.764Q281.809 190.263 282.186 191.746Q282.563 193.229 283.012 194.691Q283.462 196.154 283.982 197.592Q284.503 199.031 285.093 200.442Q285.683 201.854 286.342 203.234Q287.001 204.615 287.727 205.962Q288.453 207.308 289.244 208.618Q290.035 209.927 290.889 211.197Q291.743 212.466 292.659 213.692Q293.574 214.917 294.549 216.097Q295.523 217.276 296.554 218.406Q297.586 219.536 298.671 220.615Q299.756 221.693 300.893 222.717Q302.03 223.74 303.216 224.707Q304.401 225.674 305.633 226.581Q306.865 227.489 308.139 228.335Q309.414 229.181 310.729 229.963Q312.043 230.746 313.395 231.463Q314.746 232.18 316.131 232.829Q317.516 233.479 318.932 234.061Q320.347 234.642 321.789 235.153Q323.231 235.664 324.696 236.104Q326.161 236.544 327.646 236.911Q329.132 237.278 330.633 237.572Q332.134 237.867 333.648 238.087Q335.162 238.307 336.685 238.452Q338.208 238.598 339.736 238.669Q341.264 238.74 342.794 238.735Q344.324 238.731 345.852 238.652Z"/>
	<path fill="#220BEF" transform="scale(2 2)" d="M317.72 180.751L354.196 180.734C364.51 180.731 385.397 178.128 381.87 196.097C379.754 206.88 371.989 214.918 363.164 220.802C322.626 245.446 282.148 183.922 317.72 180.751ZM314.73 188.673C305.452 196.911 322.367 212.005 330.305 215.864C347.557 222.991 366.106 214.893 373.196 197.713C377.984 186.113 365.493 188.754 358.548 188.673L314.73 188.673Z"/>
	<path fill="#220BEF" transform="scale(2 2)" d="M314.73 147.594C321.834 147.183 332.016 156.572 325.326 160.69C321.145 163.263 320.433 156.411 316.061 155.302L315.769 155.231C309.7 154.577 311.249 160.256 307.23 160.953C298.615 162.446 302.2 148.074 314.73 147.594Z"/>
	<path fill="#220BEF" transform="scale(2 2)" d="M371.125 147.594C380.033 147.21 389.22 158.022 381.902 161.251C378.503 162.751 376.407 156.623 373.332 155.351L373.035 155.231C367.382 153.889 367.832 160.174 364.062 160.956C356.528 162.52 357.626 149.318 371.125 147.594Z"/>
	<defs>
		<linearGradient id="gradient_1" gradientUnits="userSpaceOnUse" x1="326.64383" y1="238.35944" x2="433.38391" y2="318.06525">
			<stop offset="0" stop-color="#06AFEF"/>
			<stop offset="1" stop-color="#220BEF"/>
		</linearGradient>
	</defs>
	<path fill="url(#gradient_1)" transform="scale(2 2)" d="M390.246 93.1603C385.342 91.2009 380.788 88.49 375.797 86.6562C349.128 76.8573 313.119 80.8234 290.058 98.1138C287.919 99.7179 284.949 103.807 281.989 101.991C275.845 98.2196 281.858 94.4823 284.82 92.3876C299.845 81.7585 318.306 74.8291 336.766 73.6462C352.778 72.6201 375.975 75.9763 390.246 84.3753C434.908 104.285 457.94 157.819 445.558 204.51C440.894 222.096 429.644 242.241 416.007 253.975C411.752 257.636 406.781 260.31 403.147 264.678C390.449 279.944 383.77 308.662 383.318 327.845C382.739 352.379 384.23 370.366 373.666 394.398C370.405 401.816 360.082 420.383 354.228 424.31C349.658 424.959 342.35 441.502 326.048 437.838C321.344 431.33 329.143 431.42 331.926 431.131C336.372 430.669 345.21 425.702 346.213 421.517C347.621 419.679 349.403 418.097 350.894 416.316C366.714 397.426 374.934 372.689 375.219 348.16C375.329 338.705 374.584 328.905 375.449 319.502C377.229 300.148 386.33 266.859 402.561 253.944C405.663 251.476 409.003 249.419 411.898 246.682C435.814 224.069 445.296 188.072 438.249 156.228C431.648 126.398 414.867 108.869 390.246 93.1603Z"/>
	<path fill="#06AFEF" transform="scale(2 2)" d="M390.246 93.1603C385.342 91.2009 380.788 88.49 375.797 86.6562C349.128 76.8573 313.119 80.8234 290.058 98.1138C287.919 99.7179 284.949 103.807 281.989 101.991C275.845 98.2196 281.858 94.4823 284.82 92.3876C299.845 81.7585 318.306 74.8291 336.766 73.6462C352.778 72.6201 375.975 75.9763 390.246 84.3753L390.238 84.856C403.079 91.9293 414.134 99.2154 423.606 110.852C421.146 110.409 419.283 114.297 419.39 116.347L419.049 116.433L419.387 116.381L419.374 116.133C418.962 115.934 418.816 115.926 418.55 115.539C413.972 108.877 398.194 95.5061 390.596 92.9453L390.246 93.1603Z"/>
	<path fill="#06AFEF" transform="scale(2 2)" d="M183.748 73.585C206.945 73.8572 226.145 78.0003 246.078 90.5784C248.709 92.2385 252.333 94.3075 253.981 97.0295C255.904 100.206 252.137 103.696 249.018 102.259C246.77 101.223 244.74 99.162 242.709 97.7292C190.087 60.621 120.209 89.549 98.9906 148.311C93.6696 165.367 92.0083 187.496 97.6216 204.892C98.6081 207.949 102.079 214.603 100.685 217.837C100.043 219.326 97.3972 221.122 95.749 220.21C91.3054 217.749 87.3836 195.298 86.7762 188.706C81.7696 134.367 120.007 83.1597 174.435 74.9968C177.377 74.5556 180.447 74.406 183.335 73.6907L183.748 73.585Z"/>
	<path fill="#06AFEF" transform="scale(2 2)" d="M179.802 118.095C182.414 118.276 184.999 120.255 183.821 123.208C181.756 128.383 153.628 126.018 142.385 154.366C140.751 158.488 140.822 165.477 136.235 167.31C133.586 167.358 132.653 166.312 131.575 163.939C133.409 140.876 157.141 120.15 179.802 118.095Z"/>
	<path fill="#220BEF" transform="scale(2 2)" d="M263.929 270.154C269.427 269.646 268.959 276.541 271.117 280.027C276.235 288.294 290.512 286.765 293.765 277.603C295.147 273.713 294.479 271.55 298.93 270.154C304.65 271.679 303.411 275.18 301.834 279.811C294.786 297.165 271.792 297.909 262.838 282.176C260.492 278.054 258.9 272.755 263.929 270.154Z"/>
	<path fill="#06AFEF" transform="scale(2 2)" d="M67.1661 246.985C68.876 246.785 70.6985 246.906 71.5195 248.674C72.5853 250.97 75.7506 268.864 70.1426 271.101C68.4291 271.062 66.1038 270.734 65.5484 268.776C64.4101 264.764 61.3902 248.605 67.1661 246.985Z"/>
</svg>
